<svg xmlns="http://www.w3.org/2000/svg" width="1032" height="804" fill="none" viewBox="0 0 1032 804"><path fill="url(#paint0_linear_826_502)" d="M86.4815 649.268C4.41351 555.685 -2.05862 378.273 91.0061 263.144C168.586 167.211 304.45 73.2696 467.097 56.2858C629.743 39.302 769.972 51.1964 827.204 96.6614C874.027 133.851 847.066 177.845 828.22 215.583C803.023 265.959 796.473 307.062 875.534 390.024C965.799 484.72 989.466 519.401 987.258 603.401C985.513 671.713 921.489 758.394 846.577 765.265C742.244 774.814 708.18 723.397 610.362 682.41C531.931 649.522 474.929 656.971 397.6 700.741C320.242 744.477 206.881 786.587 86.4815 649.268Z" opacity=".5"/><g clip-path="url(#clip0_826_502)"><path fill="#163560" d="M716.179 630.961C716.579 625.161 716.879 619.561 717.179 614.461C718.379 593.461 719.179 579.061 719.179 579.061L710.979 578.661L706.279 578.461L650.379 576.061C650.379 576.061 649.279 592.061 648.079 615.661C647.879 620.461 647.579 625.561 647.379 630.961H716.179Z"/><path fill="#001336" d="M710.978 578.661L719.178 579.061C719.178 579.061 718.378 593.461 717.178 614.461C695.678 616.261 672.178 616.961 648.078 615.661C649.278 592.061 650.378 576.061 650.378 576.061L706.278 578.461L710.978 578.661Z"/><path fill="#001336" d="M707.979 630.961C709.279 608.561 710.379 589.261 710.979 578.761L706.379 578.461C705.779 589.161 704.679 608.461 703.379 630.961H707.979Z"/><path fill="#163560" d="M734.276 630.961H803.076C802.776 625.561 802.576 620.461 802.276 615.661C801.076 592.061 800.076 576.061 800.076 576.061L744.076 578.461L739.476 578.661L731.176 579.061C731.176 579.061 731.976 593.461 733.276 614.461C733.576 619.561 733.876 625.161 734.276 630.961Z"/><path fill="#001336" d="M739.476 578.661L731.176 579.061C731.176 579.061 731.976 593.461 733.276 614.461C754.776 616.261 778.276 616.961 802.276 615.661C801.076 592.061 800.076 576.061 800.076 576.061L744.076 578.461L739.476 578.661Z"/><path fill="#001336" d="M747.077 630.961C745.777 608.461 744.677 589.161 744.077 578.461L739.477 578.761C739.977 589.261 741.077 608.561 742.377 630.961H747.077Z"/><path fill="#404B7E" d="M810.378 598.161C752.478 609.861 695.979 607.961 639.079 596.161C639.079 528.861 638.379 493.361 638.479 476.361C638.545 474.027 638.579 471.727 638.579 469.461C638.579 468.394 638.612 467.327 638.679 466.261C638.679 464.661 638.679 463.061 638.679 461.461C638.679 460.994 638.679 460.527 638.679 460.061C638.679 459.527 638.679 459.027 638.679 458.561C638.745 458.427 638.745 458.294 638.679 458.161C638.745 456.894 638.779 455.627 638.779 454.361C638.779 453.427 638.779 452.461 638.779 451.461C638.845 450.594 638.878 449.761 638.878 448.961C638.878 447.561 638.878 446.161 638.878 444.761C638.878 444.427 638.912 444.061 638.979 443.661C638.979 441.327 639.012 438.994 639.079 436.661V436.461C639.079 433.994 639.112 431.494 639.179 428.961C639.379 419.561 639.579 410.261 639.779 401.261C639.845 399.394 639.912 397.527 639.979 395.661C641.079 355.361 642.879 322.661 645.679 312.561C646.012 311.294 646.345 310.394 646.679 309.861C647.079 309.261 647.579 308.661 648.179 308.061C648.845 307.261 649.645 306.427 650.579 305.561C656.679 299.961 662.779 295.361 673.679 289.061C674.879 288.361 680.679 285.461 682.079 284.861C693.479 280.161 711.479 274.961 711.679 274.761L742.378 276.961C745.978 279.161 774.979 288.961 778.579 291.161C779.579 291.827 780.612 292.494 781.679 293.161C789.979 298.561 797.079 303.861 800.179 308.361C802.479 311.761 804.279 329.161 805.779 353.961C805.845 355.161 805.912 356.394 805.979 357.661C807.079 378.061 807.979 402.861 808.679 428.961C808.745 431.561 808.812 434.127 808.878 436.661C808.878 436.994 808.878 437.327 808.878 437.661C808.878 439.127 808.912 440.594 808.979 442.061C808.979 442.594 808.979 443.127 808.979 443.661C809.045 446.261 809.112 448.861 809.179 451.461C809.245 453.794 809.312 456.161 809.378 458.561C809.378 459.827 809.378 461.127 809.378 462.461C809.445 463.727 809.479 464.994 809.479 466.261C809.612 471.727 809.712 477.161 809.779 482.561C809.979 493.361 810.079 504.061 810.279 514.461C810.279 515.594 810.279 516.761 810.279 517.961C810.279 520.561 810.378 543.861 810.378 598.161Z"/><path fill="#163560" d="M681.476 181.761C681.476 181.761 678.476 163.461 682.976 157.161C687.376 150.961 694.676 152.761 702.376 145.661C710.176 138.461 733.876 145.261 744.176 143.461C749.876 142.361 755.976 143.161 761.576 142.061C769.476 140.461 773.776 148.361 771.876 156.161C770.676 161.061 768.176 168.561 760.976 170.461C760.976 170.461 692.076 157.961 681.476 181.761Z"/><path fill="#163560" d="M679.879 196.46C679.879 223.06 696.279 241.36 722.879 241.36C749.479 241.36 767.979 221.66 767.979 195.06C767.979 168.46 752.279 148.36 725.679 148.36C693.779 148.36 679.879 169.86 679.879 196.46Z"/><path fill="#FB9E82" d="M685.876 207.861C685.876 207.861 678.476 198.061 672.976 206.161C667.476 214.361 675.276 238.361 688.676 232.561L685.876 207.861Z"/><path fill="#FC7972" d="M685.779 225.06C685.279 225.06 684.879 224.76 684.679 224.26C682.579 216.86 674.879 213.86 674.879 213.76C674.279 213.56 673.979 212.86 674.179 212.36C674.379 211.76 675.079 211.46 675.679 211.66C675.979 211.76 684.479 215.06 686.879 223.66C687.079 224.26 686.679 224.86 686.079 225.06C686.012 225.06 685.912 225.06 685.779 225.06Z"/><path fill="#FC7972" d="M677.976 221.361C677.776 221.361 677.576 221.294 677.376 221.161C676.876 220.861 676.676 220.161 677.076 219.561C677.076 219.461 678.476 217.461 681.376 216.161C681.876 215.861 682.576 216.161 682.876 216.761C683.076 217.261 682.876 217.961 682.276 218.261C680.076 219.261 678.976 220.761 678.976 220.861C678.776 221.161 678.376 221.361 677.976 221.361Z"/><path fill="#FB9E82" d="M761.976 207.861C761.976 207.861 769.376 198.061 774.876 206.161C780.376 214.361 772.576 238.361 759.176 232.561L761.976 207.861Z"/><path fill="#FC7972" d="M762.076 225.06C762.576 225.06 763.076 224.76 763.176 224.26C765.276 216.86 772.976 213.86 773.076 213.76C773.676 213.56 773.976 212.86 773.676 212.36C773.476 211.76 772.876 211.46 772.276 211.66C771.876 211.76 763.376 215.06 760.976 223.66C760.876 224.26 761.176 224.86 761.776 225.06C761.909 225.06 762.009 225.06 762.076 225.06Z"/><path fill="#FC7972" d="M769.879 221.361C770.079 221.361 770.279 221.294 770.479 221.161C770.979 220.861 771.179 220.161 770.779 219.561C770.779 219.461 769.379 217.461 766.579 216.161C765.979 215.861 765.279 216.161 765.079 216.761C764.779 217.261 765.079 217.961 765.679 218.261C767.879 219.261 768.879 220.761 768.879 220.861C769.179 221.161 769.479 221.361 769.879 221.361Z"/><path fill="#FDBEAB" d="M742.176 252.961V276.861C742.176 276.861 734.976 289.061 725.376 289.861C715.676 290.661 707.176 279.361 707.176 279.361V254.561L742.176 252.961Z"/><path fill="#FB9E82" d="M742.176 252.961V263.561C735.676 270.761 724.176 272.561 707.176 269.961V254.561L742.176 252.961Z"/><path fill="#FDBEAB" d="M681.976 207.461C682.043 208.861 682.143 210.261 682.276 211.661C682.676 215.261 683.176 218.861 683.776 222.561C683.843 222.694 683.876 222.794 683.876 222.861C687.076 240.561 694.276 257.861 709.876 263.461C745.076 276.061 757.676 245.761 762.776 228.161C763.276 226.161 763.776 224.061 764.276 221.661C764.276 221.594 764.276 221.494 764.276 221.361C764.776 218.761 765.176 216.061 765.576 213.161C765.843 211.028 766.076 208.894 766.276 206.761C766.776 201.461 767.176 196.161 767.376 191.461C767.876 180.761 761.476 170.961 751.376 167.061C736.976 161.461 714.976 157.061 694.176 168.861C686.476 173.261 681.676 181.361 681.476 190.161C681.376 195.061 681.476 200.961 681.976 207.461Z"/><path fill="#163560" d="M708.976 209.261C708.976 211.861 707.676 213.961 706.076 213.961C704.476 213.961 703.176 211.861 703.176 209.261C703.176 206.761 704.476 204.661 706.076 204.661C707.676 204.661 708.976 206.761 708.976 209.261Z"/><path fill="#163560" d="M744.179 209.261C744.179 211.861 742.879 213.961 741.279 213.961C739.679 213.961 738.379 211.861 738.379 209.261C738.379 206.761 739.679 204.661 741.279 204.661C742.879 204.661 744.179 206.761 744.179 209.261Z"/><path fill="#163560" d="M751.076 194.06C751.076 194.06 741.776 190.36 734.676 193.46L735.376 197.46C735.376 197.46 745.876 196.56 751.176 198.66C751.576 197.16 751.676 195.66 751.076 194.06Z"/><path fill="#163560" d="M696.077 194.06C696.077 194.06 705.377 190.36 712.477 193.46L711.777 197.46C711.777 197.46 701.277 196.56 695.977 198.66C695.577 197.16 695.477 195.66 696.077 194.06Z"/><path fill="#FB9E82" d="M725.078 229.361C723.178 229.561 721.178 229.061 720.878 228.961C720.278 228.861 719.978 228.161 720.078 227.561C720.278 226.961 720.878 226.661 721.478 226.761C722.578 227.061 725.078 227.461 726.078 226.661C726.278 226.561 726.478 226.261 726.478 225.561C726.478 221.561 723.778 208.461 723.678 208.361C723.578 207.761 723.978 207.161 724.578 207.061C725.178 206.861 725.778 207.261 725.978 207.861C726.078 208.461 728.678 221.261 728.778 225.461C728.778 227.061 728.078 227.961 727.478 228.461C726.778 228.961 725.978 229.261 725.078 229.361Z"/><path fill="#fff" d="M709.578 236.161C710.478 240.861 713.578 249.461 723.978 249.461C734.378 249.461 737.278 241.561 738.378 236.161H709.578Z"/><path fill="#163560" d="M766.176 208.061H760.976C761.576 202.961 759.676 196.661 758.176 192.561C754.576 183.061 762.076 178.861 756.076 174.161C749.976 169.461 734.876 171.461 724.476 171.161C713.876 170.761 696.876 170.961 692.776 171.861C688.676 172.861 690.976 179.661 692.476 184.961C693.976 190.261 687.376 196.161 686.276 201.661C685.976 203.261 686.076 205.561 686.276 208.061H681.976C681.476 201.461 681.376 195.161 681.476 190.161C681.676 181.361 686.476 173.261 694.176 168.861C714.976 157.061 736.976 161.461 751.376 167.061C761.476 170.961 767.876 180.761 767.376 191.461C767.076 196.561 766.776 202.361 766.176 208.061Z"/><path fill="#404B7E" d="M646.677 309.86L570.477 417.66L587.177 461.16L639.977 395.86C639.977 395.86 649.977 350.66 646.677 309.86Z"/><path fill="#AFC2E4" d="M805.978 357.66L791.078 352.46C790.178 352.16 789.678 351.16 789.978 350.26C790.378 349.36 791.278 348.86 792.178 349.16L805.778 353.96C805.844 355.16 805.911 356.394 805.978 357.66Z"/><path fill="#AFC2E4" d="M651.877 386.261L639.777 401.261C639.844 399.394 639.911 397.527 639.977 395.661L649.177 384.061C649.777 383.361 650.877 383.261 651.577 383.861C652.377 384.461 652.477 385.461 651.877 386.261Z"/><path fill="#AFC2E4" d="M779.578 544.061C748.778 543.961 722.478 529.961 705.878 518.261C687.878 505.561 676.978 492.661 676.878 492.561C676.278 491.961 676.378 490.961 677.078 490.461C677.678 489.961 678.578 489.961 679.078 490.661C679.178 490.761 689.978 503.361 707.578 515.861C723.878 527.361 749.578 541.061 779.578 541.161C780.378 541.161 781.078 541.861 781.078 542.661C781.078 543.461 780.378 544.061 779.578 544.061Z"/><path fill="#AFC2E4" d="M747.476 554.56C720.776 554.56 694.076 539.36 692.876 538.66C692.176 538.26 691.976 537.36 692.376 536.66C692.776 535.86 693.676 535.66 694.376 536.06C694.676 536.26 726.076 554.16 753.876 551.26C754.676 551.16 755.376 551.76 755.476 552.66C755.576 553.46 754.976 554.16 754.176 554.26C751.976 554.46 749.742 554.56 747.476 554.56Z"/><path fill="#AFC2E4" d="M639.078 436.461V436.661H808.878C808.811 434.128 808.745 431.561 808.678 428.961H639.178C639.111 431.428 639.078 433.928 639.078 436.461Z"/><path fill="#AFC2E4" d="M638.777 451.461H809.177C809.111 448.861 809.044 446.261 808.977 443.661H638.877C638.877 444.061 638.877 444.428 638.877 444.761C638.877 446.161 638.877 447.561 638.877 448.961C638.877 449.761 638.844 450.594 638.777 451.461Z"/><path fill="#AFC2E4" d="M638.578 466.261H809.478C809.478 464.994 809.445 463.727 809.378 462.461C809.378 461.127 809.378 459.827 809.378 458.561H638.678C638.678 459.027 638.678 459.527 638.678 460.061C638.678 460.527 638.678 460.994 638.678 461.461C638.678 463.061 638.645 464.661 638.578 466.261Z"/><path fill="#AFC2E4" d="M734.978 341.36C735.678 341.36 736.378 340.86 736.478 340.06C736.678 339.26 736.078 338.36 735.278 338.26C694.878 330.56 682.778 304.66 682.678 304.36C682.278 303.56 681.378 303.26 680.578 303.56C679.778 303.96 679.378 304.86 679.778 305.66C680.278 306.86 692.678 333.36 734.678 341.36C734.745 341.36 734.845 341.36 734.978 341.36Z"/><path fill="#404B7E" d="M896.878 368.261C893.378 374.461 884.778 375.861 874.078 374.561C867.478 373.661 860.178 371.861 852.678 369.461C827.278 361.561 800.978 352.261 800.978 352.261L777.578 290.661C777.578 290.661 803.178 302.461 837.578 317.561C842.378 319.661 846.978 321.661 851.378 323.561C854.311 324.761 857.145 325.927 859.878 327.061C861.011 327.527 862.111 327.961 863.178 328.361C863.178 328.361 863.278 327.961 863.478 327.161C864.478 323.061 867.878 309.061 871.878 291.261C877.078 268.361 881.378 233.061 881.378 233.061L900.678 238.261C900.678 238.261 909.878 345.161 896.878 368.261Z"/><path fill="#AFC2E4" d="M865.979 341.461C865.079 341.661 864.079 341.161 863.779 340.261L859.879 327.061C861.012 327.527 862.112 327.961 863.179 328.361C863.179 328.361 863.279 327.961 863.479 327.161L867.079 339.261C867.379 340.161 866.879 341.161 865.979 341.461Z"/><path fill="#FDBEAB" d="M891.878 241.161C885.878 242.261 879.478 240.561 875.178 236.161C873.678 234.661 872.378 232.861 871.578 230.661C868.778 222.961 860.378 207.061 867.778 202.661C870.478 200.961 870.878 209.761 876.578 214.261C876.578 214.261 881.678 205.361 884.178 198.061C886.378 191.661 891.978 179.961 894.578 174.461C895.378 173.061 897.578 173.361 897.678 174.961C897.878 177.661 897.078 182.361 893.478 190.561C893.478 190.561 903.078 171.161 907.078 171.261C910.978 171.361 898.478 195.461 898.478 195.461C898.478 195.461 909.978 178.161 912.878 179.561C914.678 180.461 905.378 200.261 905.378 200.261C905.378 200.261 917.578 184.961 917.178 190.461C917.078 192.161 899.778 220.261 900.678 238.261C900.678 238.261 896.978 240.161 891.878 241.161Z"/><path fill="#AFC2E4" d="M879.376 645.461V646.861C879.376 654.861 872.876 661.361 864.876 661.361H113.176C105.176 661.361 98.6758 654.861 98.6758 646.861V645.461C98.6758 637.461 105.176 630.961 113.176 630.961H864.876C872.876 630.961 879.376 637.461 879.376 645.461Z"/><path fill="#163560" d="M879.376 645.461V646.161H98.6758V645.461C98.6758 637.461 105.176 630.961 113.176 630.961H864.876C872.876 630.961 879.376 637.461 879.376 645.461Z"/><path fill="#466AA5" d="M574.478 562.161C574.411 563.028 574.345 564.261 574.278 565.861C573.878 574.361 572.878 593.561 572.378 630.961H403.578C403.578 596.561 403.678 577.261 403.678 566.761C403.678 561.261 403.678 558.161 403.778 556.561C403.778 556.161 403.778 555.728 403.778 555.261C403.778 552.861 403.811 550.428 403.878 547.961C403.945 542.828 404.011 537.694 404.078 532.561C405.178 470.461 407.378 414.261 411.778 407.861C417.278 399.761 437.878 388.461 454.978 379.061C455.378 378.861 455.745 378.628 456.078 378.361C456.611 378.094 457.111 377.828 457.578 377.561C459.178 376.694 460.745 375.861 462.278 375.061C468.578 371.561 473.778 368.461 476.878 366.161C477.878 367.861 482.078 377.361 489.778 378.061C498.178 378.861 505.678 368.261 505.678 368.261V366.161C509.178 368.761 514.878 372.261 521.478 376.061C522.945 376.928 524.445 377.794 525.978 378.661C526.378 378.861 526.778 379.094 527.178 379.361C528.845 380.361 530.545 381.361 532.278 382.361C546.078 390.461 560.378 399.361 565.178 406.361C570.078 413.661 572.878 484.061 574.378 555.161C574.378 556.361 574.378 557.594 574.378 558.861C574.445 559.528 574.478 560.194 574.478 560.861C574.478 561.194 574.478 561.628 574.478 562.161Z"/><path fill="#82B378" d="M417.876 531.961C413.176 539.361 406.776 551.461 403.676 566.761C403.676 561.261 403.676 558.161 403.776 556.561C403.776 556.161 403.776 555.728 403.776 555.261C404.976 551.361 406.376 547.761 407.776 544.661C410.376 538.861 413.176 534.061 415.476 530.361C415.676 530.061 415.976 529.861 416.376 529.761C417.676 529.461 418.576 530.861 417.876 531.961Z"/><path fill="#82B378" d="M574.479 562.161C574.413 563.028 574.346 564.261 574.279 565.861C571.079 550.961 564.879 539.161 560.279 531.961C559.579 530.861 560.479 529.461 561.779 529.761C562.079 529.861 562.479 530.061 562.679 530.361C564.979 534.061 567.779 538.861 570.379 544.661C571.679 547.761 573.079 551.261 574.379 555.161C574.379 556.361 574.379 557.594 574.379 558.861C574.446 559.728 574.479 560.828 574.479 562.161Z"/><path fill="#466AA5" d="M436.178 412.16C436.178 412.16 406.778 377.86 427.178 353.66C447.678 329.36 496.278 331.56 512.278 334.06C528.278 336.46 575.178 364.36 541.678 403.96C508.178 443.46 436.178 412.16 436.178 412.16Z"/><path fill="#82B378" d="M442.078 543.461C455.778 554.161 474.178 563.461 498.478 566.861C499.478 567.061 500.278 566.261 500.278 565.361C500.278 565.361 500.278 565.328 500.278 565.261C500.278 564.561 499.678 563.961 498.878 563.861C475.278 560.461 457.378 551.461 443.978 540.961C442.978 540.261 441.578 540.961 441.578 542.161C441.578 542.161 441.578 542.195 441.578 542.261C441.478 542.761 441.778 543.161 442.078 543.461Z"/><path fill="#82B378" d="M448.477 523.761V523.861C448.477 524.128 448.543 524.361 448.677 524.561C449.477 525.961 450.377 527.395 451.377 528.861C457.077 536.961 467.877 547.661 486.777 552.761C486.91 552.828 487.01 552.861 487.077 552.861C487.777 552.861 488.277 552.361 488.477 551.761C488.677 551.061 488.277 550.261 487.477 550.061C467.077 544.561 456.477 532.261 451.077 523.061C450.377 521.761 448.477 522.361 448.477 523.761Z"/><path fill="#fff" d="M509.778 403.96C503.478 410.16 492.878 418.96 478.478 425.26C477.978 425.46 477.578 425.96 477.578 426.56C477.578 427.56 478.678 428.26 479.578 427.86C487.578 424.36 494.278 420.26 499.378 416.56C504.578 412.76 508.678 409.06 511.778 406.06C512.078 405.76 512.178 405.36 512.178 404.96C512.178 403.76 510.678 403.06 509.778 403.96Z"/><path fill="#fff" d="M468.778 535.261C468.078 535.261 467.578 534.761 467.578 534.061C466.278 474.461 467.578 413.961 467.578 413.361C467.578 412.661 468.078 412.161 468.778 412.161C469.478 412.161 470.078 412.761 470.078 413.461C469.978 414.061 468.678 474.461 470.078 534.061C470.078 534.761 469.478 535.261 468.778 535.261Z"/><path fill="#fff" d="M515.677 535.261C514.977 535.261 514.477 534.761 514.477 534.061C515.777 474.461 514.477 414.061 514.477 413.461C514.477 412.761 514.977 412.161 515.677 412.161C516.377 412.161 516.977 412.661 516.977 413.361C516.977 413.961 518.277 474.461 516.977 534.061C516.977 534.761 516.377 535.261 515.677 535.261Z"/><path fill="#163560" d="M534.876 292.461C534.876 318.561 518.776 336.661 492.576 336.661C466.476 336.661 448.176 317.261 448.176 291.061C448.176 264.861 463.676 245.061 489.876 245.061C521.276 245.061 534.876 266.261 534.876 292.461Z"/><path fill="#163560" d="M451.578 309.661C451.578 309.661 441.978 306.961 438.678 295.561C435.378 284.161 442.978 289.961 444.378 280.061C445.678 270.161 434.578 262.761 444.378 257.961C454.178 253.161 448.278 242.861 456.878 237.461C465.478 232.161 478.178 242.061 486.378 233.761C494.678 225.461 511.378 227.561 516.178 233.761C520.878 239.961 522.978 238.461 531.878 240.161C540.778 241.761 544.978 256.261 540.578 262.961C536.278 269.561 539.278 274.061 543.478 278.161C547.578 282.361 544.678 310.761 530.478 306.761C516.178 302.761 451.578 309.661 451.578 309.661Z"/><path fill="#FB9E82" d="M528.976 303.66C528.976 303.66 536.276 293.96 541.676 302.06C547.076 310.06 539.476 333.66 526.176 327.96L528.976 303.66Z"/><path fill="#FC7972" d="M529.076 320.561C529.576 320.561 530.076 320.261 530.176 319.761C532.176 312.461 539.776 309.561 539.876 309.461C540.476 309.261 540.776 308.661 540.476 308.061C540.276 307.461 539.676 307.161 539.076 307.361C538.676 307.561 530.376 310.761 527.976 319.161C527.876 319.761 528.176 320.361 528.776 320.561C528.909 320.627 529.009 320.627 529.076 320.561Z"/><path fill="#FC7972" d="M536.777 316.961C536.977 316.961 537.177 316.894 537.377 316.761C537.877 316.461 537.977 315.761 537.677 315.161C537.577 315.161 536.277 313.061 533.477 311.861C532.877 311.561 532.277 311.861 531.977 312.361C531.777 312.961 531.977 313.561 532.577 313.861C534.777 314.861 535.777 316.361 535.777 316.461C535.977 316.761 536.377 316.961 536.777 316.961Z"/><path fill="#FB9E82" d="M454.076 303.66C454.076 303.66 446.776 293.96 441.376 302.06C435.976 310.06 443.676 333.66 456.876 327.96L454.076 303.66Z"/><path fill="#FC7972" d="M453.978 320.561C453.478 320.561 453.078 320.261 452.878 319.761C450.878 312.461 443.278 309.561 443.178 309.461C442.678 309.261 442.378 308.661 442.578 308.061C442.778 307.461 443.478 307.161 443.978 307.361C444.378 307.561 452.678 310.761 455.078 319.161C455.278 319.761 454.878 320.361 454.278 320.561C454.212 320.627 454.112 320.627 453.978 320.561Z"/><path fill="#FC7972" d="M446.379 316.961C446.179 316.961 445.979 316.894 445.779 316.761C445.179 316.461 445.079 315.761 445.379 315.161C445.479 315.161 446.779 313.061 449.579 311.861C450.179 311.561 450.879 311.861 451.079 312.361C451.379 312.961 451.079 313.561 450.479 313.861C448.379 314.861 447.279 316.361 447.279 316.461C447.079 316.761 446.679 316.961 446.379 316.961Z"/><path fill="#FDBEAB" d="M473.676 347.961V371.561C473.676 371.561 480.676 383.561 490.176 384.361C499.676 385.161 508.076 374.061 508.076 374.061V349.661L473.676 347.961Z"/><path fill="#FB9E82" d="M473.676 347.961V358.461C479.976 365.561 491.376 367.261 508.076 364.861V349.661L473.676 347.961Z"/><path fill="#FDBEAB" d="M532.879 302.961C532.579 307.961 531.979 313.161 530.979 318.461C527.779 335.761 520.679 352.861 505.379 358.361C470.679 370.761 458.279 340.961 453.379 323.661C452.779 321.761 452.279 319.561 451.879 317.261C451.079 313.161 450.479 308.561 449.979 303.861C449.479 298.261 449.079 292.561 448.879 287.561C448.279 276.961 454.679 267.261 464.479 263.461C478.779 258.061 500.379 253.761 520.779 265.361C528.379 269.561 533.179 277.561 533.279 286.261C533.379 290.961 533.279 296.761 532.879 302.961Z"/><path fill="#163560" d="M506.379 306.761C506.379 309.261 507.679 311.361 509.279 311.361C510.879 311.361 512.179 309.261 512.179 306.761C512.179 304.261 510.879 302.261 509.279 302.261C507.679 302.261 506.379 304.261 506.379 306.761Z"/><path fill="#163560" d="M472.277 306.661C472.277 309.161 473.577 311.261 475.177 311.261C476.777 311.261 478.077 309.161 478.077 306.661C478.077 304.161 476.777 302.161 475.177 302.161C473.577 302.161 472.277 304.161 472.277 306.661Z"/><path fill="#163560" d="M520.776 293.961C520.776 293.961 509.676 289.561 501.176 293.261L501.976 297.961C501.976 297.961 514.576 296.861 520.876 299.461C521.376 297.661 521.476 295.761 520.776 293.961Z"/><path fill="#163560" d="M465.679 293.961C465.679 293.961 476.779 289.561 485.279 293.261L484.379 297.961C484.379 297.961 471.879 296.861 465.579 299.461C464.979 297.661 464.979 295.761 465.679 293.961Z"/><path fill="#FB9E82" d="M491.177 324.361C489.277 324.361 487.377 323.661 487.077 323.561C486.577 323.261 486.277 322.661 486.477 322.061C486.677 321.461 487.377 321.261 487.977 321.461C488.977 321.861 491.377 322.461 492.477 321.861C492.677 321.761 492.877 321.561 492.977 320.861C493.377 316.961 492.277 303.861 492.277 303.661C492.277 303.061 492.677 302.561 493.377 302.461C493.977 302.461 494.477 302.861 494.577 303.561C494.577 304.061 495.677 316.961 495.177 321.061C495.077 322.661 494.277 323.361 493.577 323.761C492.877 324.261 491.977 324.361 491.177 324.361Z"/><path fill="#fff" d="M506.378 332.561C505.478 337.161 502.478 345.661 492.278 345.661C481.978 345.661 479.078 337.861 478.078 332.561H506.378Z"/><path fill="#163560" d="M449.977 303.861H455.077C454.477 298.761 453.677 289.861 457.877 288.561C471.077 284.461 453.977 275.161 459.977 270.561C465.877 265.861 480.777 267.861 491.077 267.561C501.477 267.161 518.177 267.361 522.177 268.261C526.277 269.161 523.977 275.961 522.577 281.161C521.077 286.361 527.477 292.161 528.577 297.561C528.877 299.061 528.877 301.361 528.577 303.861H532.777C533.277 297.361 533.377 291.161 533.277 286.261C533.177 277.561 528.377 269.561 520.877 265.361C500.377 253.761 478.777 258.061 464.477 263.461C454.677 267.261 448.277 276.961 448.777 287.561C449.077 292.561 449.477 298.261 449.977 303.861Z"/><path fill="#466AA5" d="M589.777 630.96C583.977 605.96 578.377 581.06 578.377 569.36L575.077 558.36L563.277 518.36L544.777 455.66C544.777 455.66 547.777 414.56 565.177 406.36C565.177 406.36 584.477 445.36 595.077 482.66C596.877 488.96 598.677 495.46 600.477 501.86C608.077 528.86 615.177 555.56 618.477 571.36C621.677 587.16 623.877 609.36 625.277 630.96H589.777Z"/><path fill="#466AA5" d="M388.078 630.96C393.878 605.96 399.378 581.06 399.478 569.36L402.678 558.36L414.578 518.36L433.078 455.66C433.078 455.66 429.178 415.96 411.778 407.86C411.778 407.86 393.378 445.36 382.778 482.66C380.978 488.96 379.178 495.46 377.378 501.86C369.778 528.86 362.678 555.56 359.378 571.36C356.078 587.16 353.978 609.36 352.578 630.96H388.078Z"/><path fill="#163560" d="M255.678 630.961C255.978 625.161 256.278 619.561 256.578 614.461C257.678 593.461 258.478 579.061 258.478 579.061L250.878 578.661L246.578 578.461L194.878 575.961C194.878 575.961 193.878 592.061 192.778 615.661C192.578 620.461 192.378 625.561 192.078 630.961H255.678Z"/><path fill="#001336" d="M250.877 578.661L258.477 579.061C258.477 579.061 257.677 593.461 256.577 614.461C236.677 616.261 214.977 616.961 192.777 615.661C193.877 592.061 194.877 575.961 194.877 575.961L246.577 578.461L250.877 578.661Z"/><path fill="#001336" d="M248.179 630.961C249.379 608.461 250.279 589.261 250.879 578.661L246.579 578.461C245.979 589.061 245.079 608.461 243.879 630.961H248.179Z"/><path fill="#163560" d="M272.378 630.961H335.878C335.678 625.561 335.378 620.461 335.178 615.661C334.078 592.061 333.178 575.961 333.178 575.961L281.478 578.461L277.178 578.661L269.578 579.061C269.578 579.061 270.278 593.461 271.378 614.461C271.678 619.561 271.978 625.161 272.378 630.961Z"/><path fill="#001336" d="M277.178 578.661L269.578 579.061C269.578 579.061 270.278 593.461 271.378 614.461C291.278 616.261 312.978 616.961 335.178 615.661C334.078 592.061 333.178 575.961 333.178 575.961L281.478 578.461L277.178 578.661Z"/><path fill="#001336" d="M284.176 630.961C282.976 608.461 281.976 589.061 281.476 578.461L277.176 578.661C277.676 589.261 278.676 608.461 279.876 630.961H284.176Z"/><path fill="#163560" d="M264.577 138.361C264.577 138.361 222.277 134.161 210.977 196.461C199.677 258.761 192.177 297.861 194.677 330.961C197.277 364.161 305.977 355.261 322.777 338.661C339.677 322.061 321.277 210.861 317.077 181.261C312.877 151.661 281.377 135.461 264.577 138.361Z"/><path fill="#699DEE" d="M197.678 437.261C197.878 441.061 198.045 444.861 198.178 448.661C198.978 471.661 191.178 504.661 188.478 584.661C232.978 598.061 290.678 596.161 341.678 584.561C338.978 504.461 333.278 471.661 334.078 448.661C334.378 440.461 334.778 432.461 335.278 424.561C337.178 396.261 340.278 370.461 342.278 350.961C344.378 331.061 345.378 317.661 342.978 314.661C340.878 311.961 337.378 309.161 333.278 306.261C326.778 301.861 318.578 297.361 310.478 293.061C308.945 292.261 307.412 291.461 305.878 290.661C296.578 285.761 287.878 281.361 282.878 278.061C276.778 280.761 271.878 282.261 266.578 282.261C266.445 282.261 266.312 282.227 266.178 282.161C265.978 282.227 265.812 282.261 265.678 282.261C260.378 282.261 255.578 280.761 249.378 278.061C244.178 281.561 234.478 286.461 224.178 291.861C222.378 292.794 220.545 293.761 218.678 294.761C213.578 297.461 208.478 300.361 203.878 303.161C201.878 304.361 200.045 305.527 198.378 306.661C193.978 309.661 190.378 312.561 188.278 315.261C183.378 321.461 193.278 369.161 197.178 427.461C197.378 430.661 197.545 433.927 197.678 437.261Z"/><path fill="#4A75CB" d="M319.177 507.36C288.277 507.16 261.977 493.16 245.277 481.36C227.177 468.66 216.277 455.76 216.177 455.56C215.677 454.96 215.677 454.06 216.377 453.56C216.977 452.96 217.877 453.06 218.477 453.66C218.577 453.86 229.277 466.46 247.077 478.96C263.377 490.46 289.177 504.26 319.177 504.36C320.077 504.36 320.677 505.06 320.677 505.86C320.677 506.66 320.077 507.36 319.177 507.36Z"/><path fill="#4A75CB" d="M298.777 489.36C272.477 484.16 249.177 464.06 248.077 463.06C247.477 462.56 247.477 461.66 247.977 460.96C248.477 460.36 249.477 460.36 250.077 460.86C250.377 461.06 277.777 484.76 305.677 487.36C306.477 487.46 307.077 488.16 306.977 488.96C306.977 489.76 306.177 490.36 305.377 490.26C303.177 490.06 300.977 489.76 298.777 489.36Z"/><path fill="#82B378" d="M187.018 566.218C187.018 566.218 176.392 553.799 186.371 545.909C186.371 545.909 193.662 541.504 199.609 541.852C199.609 541.852 191.173 555.989 193.91 557.383C196.623 558.802 202.147 540.981 202.147 540.981C202.147 540.981 218.744 539.363 224.094 541.927C224.094 541.927 209.91 553.525 212.896 554.222C215.882 554.919 231.186 543.52 231.186 543.52C231.186 543.52 246.638 546.158 245.817 555.566C244.996 564.999 239.671 567.911 237.332 567.662C234.993 567.413 221.307 562.186 221.008 564.103C220.71 566.019 228.946 572.266 234.719 572.565C234.719 572.565 223.82 584.586 216.604 581.102C209.363 577.642 208.741 572.142 204.237 570.101C199.733 568.035 195.876 568.035 197.742 570.151C199.609 572.242 207.77 574.282 210.333 578.837C212.921 583.417 215.236 586.478 207.746 585.358C200.256 584.238 188.088 578.762 187.565 572.49C187.018 566.218 187.018 566.218 187.018 566.218Z"/><path fill="#82B378" d="M238.231 555.84C238.231 555.84 196.277 554.222 187.021 566.218C187.021 566.218 184.98 572.341 178.685 577.941C178.685 577.941 169.677 584.586 169.055 596.483L170.672 596.632C170.672 596.632 173.26 585.557 177.988 580.305C178.162 580.131 178.436 579.857 178.759 579.509C179.531 578.812 180.053 578.289 180.402 577.891C182.765 575.626 186 572.764 187.568 572.49C187.568 572.49 183.487 557.632 238.231 555.84Z"/><path fill="#A8D29F" d="M149.844 550.588C149.844 550.588 166.765 541.13 158.852 528.263C158.852 528.263 152.532 520.373 145.763 518.332C145.763 518.332 149.396 537.521 145.763 537.969C142.155 538.417 143.3 516.291 143.3 516.291C143.3 516.291 125.459 507.729 118.466 508.401C118.466 508.401 129.539 527.143 125.931 526.67C122.323 526.222 109.906 507.281 109.906 507.281C109.906 507.281 91.617 503.896 88.7057 514.723C85.7694 525.55 90.4973 530.976 93.2096 531.648C95.9218 532.32 113.291 532.096 112.843 534.36C112.395 536.6 100.65 540.209 94.1054 538.193C94.1054 538.193 101.322 556.014 110.802 555.118C120.283 554.222 123.219 548.348 129.091 547.9C134.939 547.452 139.244 549.02 136.308 550.588C133.371 552.181 123.443 551.111 118.69 555.143C113.962 559.175 110.13 561.663 118.939 563.455C127.723 565.272 143.524 564.127 146.684 557.358C149.844 550.588 149.844 550.588 149.844 550.588Z"/><path fill="#82B378" d="M154.346 567.065C149.618 558.279 149.842 550.588 149.842 550.588C144.417 533.44 97.0391 518.108 97.0391 518.108C157.282 542.475 146.682 557.358 146.682 557.358C148.299 558.304 150.738 562.834 152.43 566.293C152.654 566.891 153.052 567.712 153.599 568.807C153.848 569.305 154.022 569.728 154.147 570.002C157.257 577.767 155.615 591.182 155.615 591.182L157.481 591.68C161.661 578.165 154.346 567.065 154.346 567.065Z"/><path fill="#A8D29F" d="M176.741 537.521C176.741 537.521 154.446 525.027 164.847 508.078C164.847 508.078 173.183 497.674 182.116 494.986C182.116 494.986 177.338 520.273 182.116 520.871C186.869 521.468 185.376 492.323 185.376 492.323C185.376 492.323 208.866 480.999 218.098 481.895C218.098 481.895 203.516 506.585 208.269 505.987C213.046 505.415 229.395 480.426 229.395 480.426C229.395 480.426 253.482 475.946 257.339 490.233C261.221 504.519 254.975 511.637 251.392 512.533C247.833 513.429 224.94 513.13 225.538 516.117C226.11 519.079 241.587 523.857 250.222 521.169C250.222 521.169 240.692 544.665 228.2 543.47C215.709 542.3 211.852 534.56 204.113 533.962C196.374 533.365 190.726 535.456 194.608 537.521C198.464 539.612 211.553 538.218 217.799 543.52C224.045 548.821 229.096 552.106 217.5 554.496C205.905 556.86 185.077 555.367 180.922 546.457C176.741 537.521 176.741 537.521 176.741 537.521Z"/><path fill="#82B378" d="M246.342 494.688C246.342 494.688 183.885 514.922 176.743 537.521C176.743 537.521 177.042 547.651 170.796 559.249C170.796 559.249 161.166 573.859 166.665 591.679L169.154 591.008C169.154 591.008 166.989 573.336 171.07 563.107C171.244 562.734 171.468 562.186 171.766 561.539C172.513 560.071 173.035 559 173.334 558.229C175.574 553.649 178.784 547.701 180.923 546.456C180.923 546.456 166.939 526.819 246.342 494.688Z"/><path fill="#699DEE" d="M132.301 586.603C132.301 610.72 151.884 630.283 175.996 630.283C200.133 630.283 219.691 610.72 219.691 586.603H132.301Z"/><path fill="#A1C7FF" d="M186.745 629.959C184.97 630.175 183.162 630.283 181.32 630.283C157.183 630.283 137.625 610.72 137.625 586.603H148.499C148.499 608.903 165.196 627.296 186.745 629.959Z"/><path fill="#4A75CB" d="M130.883 586.603V587.947H220.687V586.603H130.883Z"/><path fill="#4A75CB" d="M254.177 343.461C253.477 343.461 252.877 342.961 252.777 342.261C252.577 341.461 253.177 340.661 253.977 340.461C291.577 333.361 302.977 309.161 303.077 308.861C303.377 308.161 304.277 307.761 305.077 308.161C305.777 308.461 306.077 309.361 305.777 310.061C305.277 311.161 293.677 335.961 254.477 343.461C254.41 343.461 254.31 343.461 254.177 343.461Z"/><path fill="#FDBEAB" d="M305.876 290.661C296.976 305.761 281.476 321.261 261.576 317.761C243.176 314.661 231.976 302.861 224.176 291.861C234.476 286.461 244.176 281.561 249.376 278.061C255.576 280.761 260.376 282.261 265.676 282.261C265.809 282.261 265.976 282.227 266.176 282.161C266.309 282.227 266.442 282.261 266.576 282.261C271.876 282.261 276.776 280.761 282.876 278.061C287.876 281.361 296.576 285.761 305.876 290.661Z"/><path fill="#fff" d="M237.377 287.261C237.177 287.261 236.977 287.261 236.777 287.261C236.643 287.194 236.477 287.128 236.277 287.061C236.077 286.994 235.91 286.894 235.777 286.761C235.577 286.694 235.41 286.594 235.277 286.461C234.777 285.861 234.477 285.061 234.477 284.361C234.477 284.161 234.477 283.961 234.477 283.761C234.543 283.561 234.61 283.361 234.677 283.161C234.743 283.028 234.843 282.861 234.977 282.661C235.043 282.528 235.143 282.394 235.277 282.261C235.41 282.128 235.577 281.994 235.777 281.861C235.91 281.794 236.077 281.694 236.277 281.561C236.477 281.494 236.643 281.461 236.777 281.461C237.177 281.394 237.577 281.394 237.977 281.461C238.177 281.461 238.343 281.494 238.477 281.561C238.677 281.694 238.843 281.794 238.977 281.861C239.177 281.994 239.343 282.128 239.477 282.261C239.61 282.394 239.743 282.528 239.877 282.661C239.943 282.861 240.01 283.028 240.077 283.161C240.143 283.361 240.21 283.561 240.277 283.761C240.343 283.961 240.377 284.161 240.377 284.361C240.377 285.061 239.977 285.861 239.477 286.461C239.343 286.594 239.177 286.694 238.977 286.761C238.843 286.894 238.677 286.994 238.477 287.061C238.343 287.128 238.177 287.194 237.977 287.261C237.777 287.261 237.577 287.261 237.377 287.261Z"/><path fill="#fff" d="M267.676 363.461C267.376 365.061 265.876 366.061 264.276 365.761C262.676 365.461 261.576 363.861 261.876 362.361C261.076 363.661 259.276 364.161 257.876 363.361C256.476 362.461 256.076 360.761 256.776 359.361C255.676 360.361 253.776 360.361 252.676 359.161C251.576 358.061 251.576 356.261 252.676 355.061C251.376 355.861 249.576 355.461 248.776 354.161C247.876 352.861 248.176 351.061 249.476 350.161C248.076 350.761 246.376 350.161 245.676 348.761C244.976 347.361 245.576 345.661 246.876 344.861C245.376 345.361 243.876 344.561 243.276 343.061C242.776 341.661 243.376 340.061 244.776 339.361C243.276 339.761 241.776 338.861 241.376 337.361C240.876 335.861 241.676 334.361 243.076 333.761C241.576 333.961 240.076 333.061 239.776 331.561C239.376 330.061 240.276 328.561 241.676 328.061C240.176 328.261 238.776 327.261 238.476 325.761C238.176 324.161 239.076 322.761 240.476 322.261C238.976 322.461 237.576 321.361 237.376 319.861C237.176 318.361 238.076 316.861 239.576 316.561C238.076 316.561 236.676 315.461 236.476 313.961C236.276 312.461 237.276 311.061 238.776 310.661C237.276 310.661 235.976 309.561 235.776 308.061C235.676 306.561 236.676 305.161 238.176 304.861C236.676 304.861 235.376 303.661 235.276 302.161C235.076 300.661 236.176 299.261 237.676 298.961C236.176 298.961 234.876 297.761 234.776 296.261C234.776 294.661 235.876 293.361 237.376 293.161C235.876 293.061 234.576 291.861 234.576 290.261C234.476 288.661 235.776 287.261 237.376 287.261C239.076 287.161 240.376 288.461 240.476 290.061C240.476 291.561 239.376 292.861 237.976 293.061C239.376 293.161 240.676 294.361 240.676 295.861C240.776 297.361 239.776 298.661 238.276 298.961C239.776 298.961 240.976 300.161 241.076 301.661C241.276 303.161 240.176 304.461 238.776 304.761C240.276 304.861 241.476 305.961 241.676 307.461C241.776 308.961 240.876 310.261 239.376 310.661C240.876 310.561 242.176 311.661 242.376 313.161C242.576 314.661 241.576 316.061 240.176 316.461C241.676 316.361 242.976 317.361 243.176 318.861C243.476 320.361 242.576 321.761 241.176 322.161C242.576 322.061 243.976 323.061 244.276 324.561C244.576 326.061 243.676 327.461 242.276 327.961C243.776 327.761 245.076 328.661 245.476 330.161C245.876 331.561 245.076 333.061 243.676 333.561C245.176 333.361 246.576 334.261 246.976 335.661C247.376 337.061 246.776 338.561 245.476 339.161C246.876 338.861 248.276 339.661 248.776 341.061C249.276 342.361 248.776 343.861 247.476 344.661C248.876 344.261 250.376 344.861 250.976 346.161C251.676 347.461 251.276 348.961 250.076 349.761C251.376 349.261 252.876 349.761 253.676 350.961C254.476 352.061 254.276 353.661 253.376 354.561C254.476 353.961 255.976 354.061 256.976 355.061C257.876 356.061 258.076 357.461 257.376 358.561C258.376 357.761 259.776 357.561 260.876 358.261C261.976 358.861 262.476 360.161 262.276 361.261C262.876 360.261 264.076 359.661 265.376 359.961C266.576 360.161 267.476 361.161 267.676 362.361C267.976 361.161 268.876 360.261 270.076 360.061C271.276 359.861 272.476 360.361 273.076 361.361C272.876 360.161 273.276 358.961 274.376 358.361C275.376 357.561 276.776 357.661 277.776 358.461C277.076 357.361 277.076 355.961 277.876 354.961C278.776 353.861 280.276 353.561 281.476 354.061C280.376 353.261 280.076 351.761 280.676 350.561C281.376 349.261 282.876 348.661 284.176 349.061C282.976 348.361 282.376 346.861 282.876 345.461C283.376 344.161 284.776 343.361 286.176 343.561C284.876 342.961 284.176 341.561 284.576 340.161C284.976 338.661 286.276 337.761 287.776 337.961C286.376 337.461 285.576 336.061 285.876 334.661C286.176 333.161 287.476 332.161 288.876 332.261C287.476 331.861 286.576 330.461 286.876 328.961C287.076 327.461 288.376 326.461 289.776 326.461C288.376 326.161 287.376 324.761 287.576 323.261C287.776 321.761 288.976 320.661 290.476 320.661C288.976 320.361 287.976 319.061 288.076 317.561C288.276 316.061 289.476 314.861 290.876 314.861C289.476 314.561 288.376 313.261 288.476 311.761C288.576 310.261 289.776 309.061 291.176 308.961C289.776 308.761 288.676 307.461 288.676 305.961C288.776 304.461 289.876 303.261 291.376 303.161C289.876 302.961 288.776 301.661 288.776 300.161C288.776 298.661 289.876 297.461 291.376 297.261C289.876 297.161 288.776 295.861 288.776 294.361C288.676 292.861 289.776 291.661 291.276 291.461C289.776 291.261 288.676 290.061 288.576 288.661C288.476 286.961 289.776 285.661 291.376 285.561C293.076 285.461 294.376 286.761 294.476 288.361C294.576 289.861 293.476 291.161 291.976 291.461C293.476 291.561 294.576 292.761 294.676 294.261C294.676 295.861 293.576 297.061 292.076 297.261C293.576 297.461 294.676 298.661 294.676 300.261C294.676 301.761 293.476 302.961 292.076 303.161C293.476 303.361 294.676 304.661 294.576 306.161C294.576 307.661 293.376 308.861 291.876 308.961C293.376 309.261 294.476 310.561 294.376 312.061C294.276 313.561 293.076 314.761 291.576 314.861C293.076 315.161 294.076 316.461 293.976 317.961C293.876 319.561 292.576 320.661 291.176 320.761C292.576 321.061 293.576 322.461 293.476 323.961C293.276 325.461 291.976 326.561 290.476 326.561C291.876 326.961 292.876 328.361 292.676 329.861C292.476 331.361 291.076 332.461 289.576 332.361C291.076 332.761 291.976 334.261 291.676 335.761C291.376 337.261 289.876 338.261 288.376 338.161C289.876 338.661 290.676 340.161 290.276 341.661C289.876 343.161 288.376 344.061 286.876 343.761C288.276 344.461 288.976 346.061 288.476 347.461C287.876 348.961 286.376 349.761 284.876 349.361C286.176 350.161 286.676 351.861 285.976 353.261C285.276 354.661 283.576 355.161 282.176 354.561C283.376 355.561 283.476 357.361 282.476 358.661C281.476 359.861 279.676 360.161 278.476 359.161C279.376 360.461 278.976 362.361 277.576 363.261C276.276 364.161 274.376 363.761 273.476 362.361C273.476 362.361 273.476 362.394 273.476 362.461C273.776 364.061 272.676 365.561 271.076 365.861C270.942 365.861 270.776 365.861 270.576 365.861C269.176 365.861 267.976 364.861 267.676 363.461Z"/><path fill="#fff" d="M291.277 285.661C291.077 285.661 290.877 285.628 290.677 285.561C290.477 285.494 290.277 285.428 290.077 285.361C289.944 285.294 289.777 285.228 289.577 285.161C289.444 285.028 289.311 284.894 289.177 284.761C288.577 284.161 288.277 283.461 288.277 282.661C288.277 282.461 288.311 282.261 288.377 282.061C288.377 281.928 288.411 281.761 288.477 281.561C288.544 281.361 288.644 281.194 288.777 281.061C288.911 280.861 289.044 280.694 289.177 280.561C289.311 280.428 289.444 280.328 289.577 280.261C289.777 280.128 289.944 280.028 290.077 279.961C290.277 279.894 290.477 279.828 290.677 279.761C291.077 279.694 291.444 279.694 291.777 279.761C291.977 279.828 292.177 279.894 292.377 279.961C292.511 280.028 292.677 280.128 292.877 280.261C293.011 280.328 293.144 280.428 293.277 280.561C293.411 280.694 293.544 280.861 293.677 281.061C293.811 281.194 293.911 281.361 293.977 281.561C294.044 281.761 294.077 281.928 294.077 282.061C294.144 282.261 294.177 282.461 294.177 282.661C294.177 283.461 293.877 284.161 293.277 284.761C293.144 284.894 293.011 285.028 292.877 285.161C292.677 285.228 292.511 285.294 292.377 285.361C292.177 285.428 291.977 285.494 291.777 285.561C291.577 285.628 291.411 285.661 291.277 285.661Z"/><path fill="#FB9E82" d="M228.776 210.661C228.776 210.661 219.576 200.161 214.476 207.561C209.476 214.861 216.676 237.661 228.876 232.361L228.776 210.661Z"/><path fill="#FC7972" d="M225.979 224.76C225.579 224.76 225.079 224.46 224.979 224.06C223.179 217.26 216.179 214.46 216.179 214.46C215.579 214.26 215.379 213.66 215.579 213.16C215.779 212.56 216.379 212.36 216.879 212.56C217.179 212.66 224.879 215.76 226.979 223.46C227.179 224.06 226.779 224.66 226.279 224.76C226.146 224.76 226.046 224.76 225.979 224.76Z"/><path fill="#FC7972" d="M218.979 221.361C218.779 221.361 218.579 221.294 218.379 221.161C217.879 220.861 217.779 220.261 218.079 219.761C218.179 219.661 219.379 217.761 221.979 216.661C222.479 216.461 223.179 216.661 223.379 217.161C223.579 217.661 223.379 218.361 222.879 218.561C220.779 219.461 219.879 220.861 219.879 220.861C219.679 221.161 219.279 221.361 218.979 221.361Z"/><path fill="#FB9E82" d="M302.178 210.661C302.178 210.661 311.478 200.161 316.478 207.561C321.578 214.861 314.378 237.661 302.078 232.361L302.178 210.661Z"/><path fill="#FC7972" d="M305.076 224.76C305.476 224.76 305.876 224.46 305.976 224.06C307.876 217.26 314.776 214.46 314.876 214.46C315.376 214.26 315.676 213.66 315.476 213.16C315.276 212.56 314.676 212.36 314.176 212.56C313.776 212.66 306.176 215.76 303.976 223.46C303.876 224.06 304.176 224.66 304.776 224.76C304.843 224.76 304.943 224.76 305.076 224.76Z"/><path fill="#FC7972" d="M312.078 221.361C312.278 221.361 312.445 221.294 312.578 221.161C313.078 220.861 313.178 220.261 312.878 219.761C312.878 219.661 311.578 217.761 308.978 216.661C308.478 216.461 307.878 216.661 307.678 217.161C307.378 217.661 307.678 218.361 308.178 218.561C310.178 219.461 311.178 220.861 311.178 220.861C311.378 221.161 311.678 221.361 312.078 221.361Z"/><path fill="#FDBEAB" d="M282.979 254.761V278.061C282.979 278.061 276.079 289.961 266.679 290.761C257.279 291.661 248.879 280.561 248.879 280.561V256.361L282.979 254.761Z"/><path fill="#FB9E82" d="M282.979 254.761V265.161C276.679 272.161 265.479 274.661 248.879 272.161V256.361L282.979 254.761Z"/><path fill="#FDBEAB" d="M307.576 194.861C307.176 203.861 306.276 215.261 304.576 224.361C304.176 226.561 303.676 228.661 303.176 230.561C298.176 247.761 285.976 277.261 251.576 265.061C236.376 259.561 229.276 242.661 226.176 225.461C224.076 213.761 223.776 201.961 223.876 193.561C224.076 184.961 228.776 177.061 236.276 172.761C256.576 161.261 277.976 165.561 292.076 170.961C301.876 174.761 308.076 184.361 307.576 194.861Z"/><path fill="#163560" d="M260.078 171.461C260.078 171.461 244.878 197.561 228.578 201.861C227.778 206.161 226.378 211.861 224.378 211.561C222.178 211.161 222.078 205.461 222.178 202.261C206.878 199.561 222.478 164.561 246.478 164.061L260.078 171.461Z"/><path fill="#163560" d="M309.276 197.061C309.276 197.061 307.476 212.061 304.376 211.561C301.176 211.061 302.276 200.161 302.276 200.161L302.876 199.861C241.876 196.161 246.576 164.561 246.576 164.561C310.976 150.461 308.676 183.861 309.276 195.661V197.061Z"/><path fill="#163560" d="M250.179 212.261C250.179 214.661 248.879 216.761 247.279 216.761C245.679 216.761 244.379 214.661 244.379 212.261C244.379 209.761 245.679 207.661 247.279 207.661C248.879 207.661 250.179 209.761 250.179 212.261Z"/><path fill="#163560" d="M285.577 212.261C285.577 214.661 284.277 216.761 282.677 216.761C281.077 216.761 279.777 214.661 279.777 212.261C279.777 209.761 281.077 207.661 282.677 207.661C284.277 207.661 285.577 209.761 285.577 212.261Z"/><path fill="#163560" d="M241.578 198.761C243.978 198.061 248.778 196.961 253.878 196.961C255.178 196.961 256.178 198.161 255.978 199.461C255.778 200.561 254.878 201.261 253.778 201.261C250.278 201.061 241.278 201.561 236.978 203.261C236.878 202.561 237.378 201.761 237.978 200.961C238.878 199.861 240.178 199.161 241.578 198.761Z"/><path fill="#163560" d="M287.877 198.861C285.577 198.161 280.777 197.061 275.677 197.061C274.277 197.061 273.277 198.261 273.577 199.561C273.677 200.661 274.677 201.361 275.777 201.361C279.177 201.161 288.277 201.661 292.577 203.361C292.577 202.661 292.177 201.861 291.577 201.061C290.577 199.961 289.277 199.261 287.877 198.861Z"/><path fill="#FB9E82" d="M265.677 232.761C264.777 232.761 263.977 232.661 263.277 232.261C262.577 231.861 261.777 231.061 261.677 229.461C261.177 225.461 262.277 212.661 262.277 212.161C262.377 211.561 262.877 211.061 263.477 211.061C264.077 211.161 264.577 211.661 264.477 212.261C264.477 212.461 263.477 225.461 263.877 229.261C263.877 229.961 264.177 230.161 264.377 230.361C265.477 230.961 267.877 230.261 268.877 229.861C269.377 229.661 270.077 229.961 270.277 230.461C270.477 231.061 270.277 231.761 269.677 231.961C269.377 232.061 267.577 232.761 265.677 232.761Z"/><path fill="#fff" d="M251.578 239.761C252.378 243.961 255.178 251.761 264.578 251.761C273.978 251.761 276.678 244.661 277.578 239.761H251.578Z"/><path fill="#FB9E82" d="M264.479 258.261C261.779 258.261 259.379 256.761 259.279 256.761C258.779 256.361 258.579 255.761 258.879 255.161C259.179 254.661 259.879 254.461 260.379 254.861C260.479 254.861 262.379 256.061 264.479 256.061C266.679 256.061 268.679 254.861 268.679 254.861C269.279 254.461 269.879 254.661 270.279 255.161C270.579 255.761 270.379 256.361 269.879 256.761C269.779 256.761 267.379 258.261 264.479 258.261Z"/><path fill="#163560" d="M221.478 190.36C221.478 190.66 221.278 191.86 221.078 193.66C221.078 192.86 221.278 191.66 221.478 190.36Z"/><path fill="#00255E" fill-rule="evenodd" d="M269.977 214.561C269.977 207.161 275.977 201.061 283.477 201.061C290.877 201.061 296.977 207.161 296.977 214.561C296.977 222.061 290.877 228.061 283.477 228.061C275.977 228.061 269.977 222.061 269.977 214.561ZM272.077 214.561C272.077 220.861 277.177 225.961 283.477 225.961C289.777 225.961 294.877 220.861 294.877 214.561C294.877 208.261 289.777 203.161 283.477 203.161C277.177 203.161 272.077 208.261 272.077 214.561Z" clip-rule="evenodd"/><path fill="#00255E" fill-rule="evenodd" d="M233.176 214.561C233.176 207.161 239.176 201.061 246.576 201.061C254.076 201.061 260.076 207.161 260.076 214.561C260.076 222.061 254.076 228.061 246.576 228.061C239.176 228.061 233.176 222.061 233.176 214.561ZM235.276 214.561C235.276 220.861 240.376 225.961 246.576 225.961C252.876 225.961 257.976 220.861 257.976 214.561C257.976 208.261 252.876 203.161 246.576 203.161C240.376 203.161 235.276 208.261 235.276 214.561Z" clip-rule="evenodd"/><path fill="#00255E" d="M234.579 208.261C234.179 207.961 227.679 203.761 220.379 202.461C219.679 202.261 218.879 202.861 218.879 203.661C218.879 204.261 219.379 204.761 219.879 204.861C226.779 206.161 233.079 210.261 233.179 210.261C233.379 210.461 233.612 210.561 233.879 210.561C234.279 210.561 234.679 210.361 234.879 209.961C235.279 209.361 235.179 208.561 234.579 208.261Z"/><path fill="#00255E" d="M294.978 208.56C295.378 208.36 301.878 204.16 309.178 202.76C309.878 202.56 310.578 203.16 310.578 203.96C310.578 204.56 310.178 205.06 309.578 205.16C302.778 206.46 296.378 210.56 296.378 210.66C296.111 210.794 295.878 210.86 295.678 210.86C295.278 210.86 294.878 210.66 294.578 210.26C294.278 209.66 294.378 208.96 294.978 208.56Z"/><path fill="#00255E" d="M259.376 211.561C259.376 211.561 261.876 208.161 265.176 208.161C268.376 208.161 270.676 211.561 270.676 211.561L272.476 210.361C272.276 210.261 269.576 206.061 265.176 206.061C260.776 206.061 257.776 210.161 257.676 210.361L259.376 211.561Z"/><path fill="#699DEE" d="M360.777 431.061C353.477 452.161 320.477 450.561 282.977 439.061C282.911 439.061 282.844 439.061 282.777 439.061C282.711 438.994 282.611 438.961 282.477 438.961L277.277 437.261C276.611 437.061 275.911 436.828 275.177 436.561C271.111 435.228 267.044 433.761 262.977 432.161C249.577 427.061 236.077 421.061 223.277 414.661L223.377 414.361L227.177 404.461L228.577 401.061C228.577 401.061 298.077 408.661 333.077 401.261C333.677 401.194 334.277 401.094 334.877 400.961C334.677 400.161 334.677 399.361 334.477 398.661C315.877 335.561 336.177 323.461 342.977 314.661C342.977 314.661 374.677 391.261 360.777 431.061Z"/><path fill="#4A75CB" d="M349.478 411.561C349.278 411.628 349.078 411.661 348.878 411.661C348.278 411.661 347.778 411.361 347.478 410.861C344.878 405.461 335.878 402.161 333.078 401.261C333.678 401.194 334.278 401.094 334.878 400.961C334.678 400.161 334.545 399.394 334.478 398.661C337.978 399.761 347.078 403.361 350.178 409.561C350.578 410.261 350.178 411.161 349.478 411.561Z"/><path fill="#4A75CB" d="M252.076 408.861C237.876 408.861 226.276 408.061 225.276 407.961C224.476 407.961 223.876 407.261 223.976 406.461C223.976 405.561 224.676 404.961 225.476 405.061C226.076 405.061 278.276 408.761 298.776 400.461C299.576 400.161 300.476 400.461 300.776 401.261C301.076 401.961 300.676 402.861 299.876 403.161C288.576 407.761 268.476 408.861 252.076 408.861Z"/><path fill="#4A75CB" d="M277.277 437.26C289.177 433.96 300.077 430.76 306.277 428.76C314.977 425.96 322.177 417.26 325.377 409.76C325.777 409.06 326.577 408.66 327.377 409.06C328.077 409.36 328.477 410.26 328.177 410.96C324.577 419.06 316.777 428.56 307.177 431.66C302.677 433.06 295.777 435.16 287.777 437.46C284.277 438.36 280.677 438.36 277.277 437.26Z"/><path fill="#699DEE" d="M309.379 427.061C201.879 463.261 168.779 439.561 168.779 439.561C161.579 374.161 188.279 315.261 188.279 315.261C196.079 328.261 205.079 350.961 205.079 350.961L207.379 401.161L207.179 402.461V403.161L206.679 406.561V406.661C206.879 406.727 207.113 406.794 207.379 406.861C239.879 413.661 299.379 405.961 299.379 405.961L309.379 427.061Z"/><path fill="#4A75CB" d="M207.377 406.861C201.577 411.661 196.077 417.261 191.177 423.761C190.677 424.361 189.677 424.561 189.077 424.061C188.377 423.561 188.277 422.561 188.777 421.961C194.277 414.661 200.577 408.461 207.177 403.161L206.677 406.561V406.661C206.877 406.728 207.111 406.794 207.377 406.861Z"/><path fill="#FDBEAB" d="M299.379 405.961C299.379 405.961 311.279 378.961 329.379 381.361L334.879 400.961C324.879 405.161 323.479 422.161 309.379 427.061L299.379 405.961Z"/><path fill="#FDBEAB" d="M228.576 401.061C228.576 401.061 220.976 383.361 201.276 378.261C181.476 373.161 168.876 382.461 167.476 385.961C166.176 389.561 174.976 386.161 174.976 386.161C174.976 386.161 169.276 387.761 165.976 393.161C162.676 398.561 173.976 392.761 173.976 392.761C173.976 392.761 165.876 396.261 164.876 399.561C163.776 402.861 174.476 397.261 176.476 397.361C176.476 397.361 166.976 401.161 167.076 404.561C167.076 407.961 177.976 402.461 186.076 402.861C194.176 403.261 206.676 406.661 206.676 406.661C213.276 407.961 219.676 408.861 225.376 409.161L228.576 401.061Z"/><path fill="#001336" d="M620.577 451.561V570.161C620.577 578.261 614.077 584.661 606.077 584.661H371.977C363.977 584.661 357.477 578.261 357.477 570.161V451.561C357.477 443.561 363.977 437.061 371.977 437.061H606.077C614.077 437.061 620.577 443.561 620.577 451.561Z"/><path fill="#163560" d="M620.577 459.561V570.161C620.577 578.261 614.077 584.661 606.077 584.661H371.977C363.977 584.661 357.477 578.261 357.477 570.161V459.561C357.477 451.561 363.977 445.061 371.977 445.061H606.077C614.077 445.061 620.577 451.561 620.577 459.561Z"/><path fill="#001336" d="M509.376 630.961H468.676V584.561H509.376V630.961Z"/><path fill="#3B73A9" d="M508.779 512.761C508.779 523.861 499.779 532.961 488.579 532.961C477.379 532.961 468.379 523.861 468.379 512.761C468.379 501.561 477.379 492.461 488.579 492.461C499.779 492.461 508.779 501.561 508.779 512.761Z"/><path fill="#163560" d="M540.879 630.961H435.879V626.761C435.879 619.961 441.279 614.461 448.079 614.461H528.679C535.479 614.461 540.879 619.961 540.879 626.761V630.961Z"/></g><defs><linearGradient id="paint0_linear_826_502" x1="402107" x2="-1184910" y1="1071070" y2="-1489510" gradientUnits="userSpaceOnUse"><stop stop-color="#7C4695"/><stop offset="1" stop-color="#E3C1F3"/></linearGradient><clipPath id="clip0_826_502"><rect width="935" height="622" fill="#fff" transform="translate(28.7773 39.7607)"/></clipPath></defs></svg>