<svg width="854" height="560" viewBox="0 0 854 560" fill="none" xmlns="http://www.w3.org/2000/svg">
<g clip-path="url(#clip0_825_103)">
<path opacity="0.5" d="M772.108 498.749C842.055 431.972 858.752 295.655 793.98 200.854C739.983 121.856 640.549 40.5941 515.236 16.8999C389.923 -6.79436 280.137 -6.76947 232.659 24.5408C193.816 50.1514 211.882 85.8172 224.05 116.132C240.323 156.601 242.712 188.708 175.801 247.495C99.4084 314.596 78.7302 339.783 74.9231 404.669C71.7877 457.433 115.856 528.416 173.636 538.596C254.109 552.758 283.969 515.35 362.7 490.137C425.829 469.903 469.649 479.36 526.881 518.137C584.138 556.889 669.488 596.736 772.108 498.749Z" fill="url(#paint0_linear_825_103)"/>
<path d="M853.079 430.428H0.945722C0.547587 430.428 0.199219 430.105 0.199219 429.706V429.258C0.199219 428.86 0.547587 428.512 0.945722 428.512H853.079C853.478 428.512 853.826 428.86 853.826 429.258V429.706C853.826 430.105 853.478 430.428 853.079 430.428Z" fill="#283250"/>
<path d="M660.085 298.368V340.356C660.085 347.723 657.995 353.672 655.432 353.672H573.266C570.703 353.672 568.613 347.723 568.613 340.356V298.368C568.613 291.001 575.879 284.182 597.179 284.406L655.432 285.028C657.995 285.028 660.085 291.001 660.085 298.368Z" fill="#F1A34F"/>
<path d="M670.981 298.368V340.355C670.981 347.723 668.891 353.671 666.303 353.671H584.138C581.575 353.671 579.484 347.723 579.484 340.355V298.368C579.484 291.001 587.223 283.932 599.068 284.181L666.303 285.027C668.891 285.027 670.981 291.001 670.981 298.368Z" fill="#E78B37"/>
<path d="M650.703 248.043C651.823 245.579 650.156 142.265 675.338 143.509C700.52 144.754 747.525 145.973 747.525 145.973C747.525 145.973 768.775 147.84 755.91 198.563C743.046 249.287 745.833 329.703 745.833 329.703H652.943L650.703 248.043Z" fill="#F1A34F"/>
<path d="M737.995 198.563C736.452 204.636 735.158 211.107 734.013 217.803C729.485 244.956 728.091 275.893 727.743 298.368C727.469 316.91 727.917 329.678 727.917 329.678H635.052L632.812 248.018C633.907 245.554 632.24 142.265 657.422 143.509C670.312 144.156 688.9 144.754 703.954 145.251C705.845 145.276 707.712 145.351 709.478 145.401C721.149 145.749 729.634 145.973 729.634 145.973C729.634 145.973 750.884 147.815 737.995 198.563Z" fill="#E78B37"/>
<path d="M679.667 405.789V351.307C679.667 348.992 677.726 347.051 675.412 347.051H675.387C674.615 347.051 673.894 347.275 673.297 347.648C672.003 348.37 671.132 349.739 671.132 351.307V405.863C670.966 405.88 670.808 405.905 670.659 405.938C658.466 407.829 648.538 416.765 645.203 428.487H706.043C702.634 416.491 692.307 407.406 679.667 405.789Z" fill="#D16E24"/>
<path opacity="0.4" d="M733.939 216.185C731.675 181.34 713.46 151.523 709.479 145.401L669.59 141.443C669.59 141.443 638.81 161.802 646.399 240.153C650.306 280.547 666.953 254.09 682.181 218.972L679.046 295.058C679.046 295.058 716.197 297.596 727.743 298.368C728.091 275.893 729.485 244.956 734.014 217.802C734.014 217.28 733.989 216.707 733.939 216.185Z" fill="#C44F00"/>
<path d="M673.298 347.648C672.004 348.37 671.133 349.739 671.133 351.307V418.059C671.133 419.652 672.004 421.021 673.298 421.693C674.542 420.971 675.413 419.627 675.413 418.059V351.307C675.413 349.739 674.542 348.37 673.298 347.648Z" fill="#F1A34F"/>
<path d="M670.659 405.938C658.466 407.829 648.538 416.764 645.203 428.487H696.09C692.755 416.764 682.877 407.829 670.659 405.938Z" fill="#F1A34F"/>
<path d="M747.177 334.357L745.061 346.428C745.061 348.992 745.086 353.671 742.523 353.671H597.876C595.313 353.671 593.223 351.605 593.223 349.017V334.357C593.223 331.794 595.313 329.703 597.876 329.703H742.523C745.086 329.703 747.177 331.794 747.177 334.357Z" fill="#F1A34F"/>
<path d="M573.19 419.701C573.464 420.995 573.713 422.315 573.638 423.683C573.464 424.43 572.966 425.003 572.245 425.451L571.573 426.745C570.851 427.093 569.11 427.342 566.87 427.566L566.82 426.521C566.522 426.521 566.223 426.521 565.924 426.546V426.521C563.262 426.546 559.977 426.77 555.971 428.363C555.921 428.363 555.896 428.412 555.847 428.412C555.125 428.437 554.403 428.487 553.756 428.512H544.002C539.299 427.84 537.458 425.948 537.109 425.003C537.109 424.729 540.618 422.987 543.554 422.165C543.579 422.165 543.654 422.115 543.778 422.115C544.176 421.966 544.973 421.667 545.172 421.643C545.694 421.443 546.316 421.294 546.839 421.145C551.716 419.701 555.025 416.441 558.882 412.857C563.312 408.725 569.333 390.307 568.537 389.959L578.491 391.253C578.491 391.253 570.503 407.232 571.15 412.21C571.399 414.4 572.195 416.242 572.742 418.158C572.767 418.233 572.767 418.332 572.817 418.407C572.917 418.681 572.991 418.93 573.066 419.203C573.116 419.403 573.141 419.552 573.19 419.701Z" fill="#EF9A60"/>
<path d="M698.503 281.494L655.678 279.727C655.678 279.727 590.533 283.933 585.009 293.415L560.449 408.327C560.449 408.327 561.818 410.169 566.421 410.941C568.86 411.364 574.185 410.169 574.185 410.169C574.185 410.169 605.986 369.476 610.067 343.94C613.501 322.585 614.844 320.345 626.54 320.793C638.235 321.241 674.142 324.079 691.212 320.768C708.257 317.458 698.503 281.494 698.503 281.494Z" fill="#233862"/>
<path d="M573.839 422.613C573.839 422.987 573.789 423.385 573.64 423.684C573.466 424.43 572.968 425.003 572.246 425.451C572.172 425.525 572.097 425.575 572.022 425.6C572.022 425.6 572.022 425.6 571.973 425.6C571.948 425.65 571.898 425.65 571.873 425.675C570.629 426.446 568.962 426.446 566.822 426.521H565.926C563.263 426.546 559.979 426.77 555.973 428.363C555.923 428.363 555.898 428.412 555.848 428.412C555.749 428.437 555.649 428.487 555.55 428.512H539.002C536.738 427.616 536.265 426.172 536.041 425.65C535.867 425.227 536.389 424.779 537.409 424.281C537.484 424.256 537.609 424.206 537.683 424.131C539.126 423.484 541.266 422.812 543.581 422.041C543.63 422.091 543.705 422.091 543.78 422.115C545.322 422.663 550.747 424.355 557.092 423.136C562.392 422.115 567.668 419.627 571.724 418.407C572.047 418.332 572.396 418.233 572.744 418.158C572.819 418.108 572.893 418.108 572.968 418.059C573.043 418.233 573.067 418.407 573.117 418.556C573.49 419.851 573.839 421.219 573.839 422.613Z" fill="#365DA4"/>
<path d="M572.47 425.027L572.246 425.45L571.574 426.745L570.629 428.512H565.951V427.566L565.926 426.546V426.098L572.196 425.077L572.47 425.027Z" fill="#365DA4"/>
<path d="M587.698 419.701C587.972 420.995 588.246 422.315 588.171 423.683C587.972 424.43 587.474 425.003 586.753 425.451L586.081 426.745C585.359 427.093 583.617 427.342 581.378 427.566L581.353 426.521C581.029 426.521 580.731 426.521 580.432 426.546V426.521C577.795 426.546 574.485 426.77 570.479 428.363C570.429 428.363 570.404 428.412 570.354 428.412C569.633 428.437 568.936 428.487 568.289 428.512H558.51C553.807 427.84 551.966 425.948 551.617 425.003C551.617 424.729 555.151 422.987 558.062 422.165C558.087 422.165 558.162 422.115 558.286 422.115C558.709 421.966 559.505 421.667 559.679 421.643C560.227 421.443 560.824 421.294 561.347 421.145C566.249 419.701 569.533 416.441 573.39 412.857C577.819 408.725 583.841 390.307 583.045 389.959L592.998 391.253C592.998 391.253 585.011 407.232 585.658 412.21C585.931 414.4 586.728 416.242 587.25 418.158C587.3 418.233 587.3 418.332 587.325 418.407C587.449 418.681 587.524 418.93 587.599 419.203C587.624 419.403 587.673 419.552 587.698 419.701Z" fill="#FFB27D"/>
<path d="M672.525 175.193L669.191 188.434L651.698 257.6C651.026 258.646 645.452 260.861 639.281 262.927C631.94 265.366 623.729 267.68 622.186 267.556C619.349 267.332 617.782 261.384 618.578 259.716C619.1 258.621 628.457 253.643 635.797 249.188C639.878 246.699 643.312 244.384 644.258 243.016C645.999 240.452 650.254 216.907 653.763 199.659C655.53 190.824 657.122 183.631 658.043 181.739C660.357 176.836 669.44 175.492 671.903 175.243C672.301 175.193 672.525 175.193 672.525 175.193Z" fill="#466AA5"/>
<path d="M709.824 281.519L666.999 279.776C666.999 279.776 601.855 283.983 596.33 293.44L573.637 410.642C573.637 410.642 577.593 411.986 580.082 412.16C584.063 412.459 586.775 411.165 586.775 411.165C586.775 411.165 617.307 369.526 621.413 343.965C624.822 322.635 626.166 320.395 637.861 320.843C649.581 321.291 685.463 324.103 702.533 320.793C719.603 317.508 709.824 281.519 709.824 281.519Z" fill="#2B478B"/>
<path d="M588.346 422.613C588.346 422.987 588.321 423.385 588.172 423.684C587.973 424.43 587.475 425.003 586.754 425.451C586.679 425.525 586.604 425.575 586.53 425.6C586.53 425.6 586.53 425.6 586.505 425.6C586.455 425.65 586.43 425.65 586.38 425.675C585.136 426.446 583.469 426.446 581.354 426.521H580.433C577.796 426.546 574.486 426.77 570.48 428.363C570.43 428.363 570.405 428.412 570.355 428.412C570.256 428.437 570.181 428.487 570.057 428.512H553.509C551.245 427.616 550.797 426.172 550.573 425.65C550.374 425.227 550.897 424.779 551.917 424.281C551.991 424.256 552.116 424.206 552.19 424.131C553.634 423.484 555.799 422.812 558.088 422.041C558.138 422.091 558.212 422.091 558.287 422.115C559.83 422.663 565.254 424.355 571.624 423.136C576.925 422.115 582.175 419.627 586.231 418.407C586.579 418.332 586.903 418.233 587.251 418.158C587.326 418.108 587.401 418.108 587.475 418.059C587.55 418.233 587.6 418.407 587.624 418.556C587.998 419.851 588.346 421.219 588.346 422.613Z" fill="#466AA5"/>
<path d="M586.974 425.027L586.75 425.45L586.078 426.745L585.133 428.512H580.479V427.566L580.43 426.546V426.098L586.725 425.077L586.974 425.027Z" fill="#466AA5"/>
<path d="M693.951 156.6C714.479 155.032 718.511 112.871 694.075 117.998C694.075 117.998 690.641 115.758 688.949 115.758C688.949 115.758 690.268 116.231 690.84 117.052C688.178 116.455 684.097 115.509 680.862 117.326C647.817 136.067 685.988 157.198 693.951 156.6Z" fill="#163560"/>
<path d="M670.758 179.051C670.684 179.076 677.527 184.153 683.399 183.531C688.898 182.958 693.477 176.662 693.402 176.637C691.237 175.815 691.088 172.654 693.278 159.438L692.233 159.463L674.69 160.086C674.69 160.086 674.192 165.511 673.396 170.539C672.724 174.77 671.804 178.752 670.758 179.051Z" fill="#FFB27D"/>
<path d="M669.19 188.434L651.697 257.6C651.026 258.645 645.452 260.861 639.281 262.926C638.758 261.657 638.26 260.189 637.788 258.571C636.867 255.36 636.17 252.224 635.797 249.188C639.878 246.699 643.312 244.384 644.257 243.015C645.999 240.452 650.254 216.907 653.763 199.659C661.601 191.968 668.991 188.16 668.991 188.16L669.19 188.434Z" fill="#2B478B"/>
<path d="M674.688 160.085C674.688 160.085 674.191 165.511 673.395 170.538C682.95 171.808 689.395 163.943 692.231 159.463L674.688 160.085Z" fill="#EF9A60"/>
<path d="M694.299 157.895C694.299 157.895 700.545 150.827 702.834 144.281C704.477 139.627 704.924 121.383 686.585 121.059C686.585 121.059 681.285 120.711 675.861 123.225C671.556 125.216 665.011 129.995 668.769 146.571L669.54 152.096L694.299 157.895Z" fill="#163560"/>
<path d="M670.733 164.341C670.733 164.341 693.177 168.373 695.467 154.336C697.756 140.323 702.21 131.388 687.952 128.227C673.719 125.067 670.061 129.97 668.145 134.45C666.254 138.955 664.935 162.923 670.733 164.341Z" fill="#FFB27D"/>
<path d="M677.75 126.211C677.75 126.211 681.259 143.683 690.316 147.64C699.399 151.623 703.903 149.731 703.903 149.731C703.903 149.731 697.582 142.812 697.707 132.483C697.707 132.483 683.672 119.143 677.75 126.211Z" fill="#163560"/>
<path d="M679.07 127.805C679.07 127.805 673.869 130.742 672.177 134.127C670.46 137.511 668.768 144.779 666.678 144.182C666.678 144.182 663.841 132.26 670.087 126.759C676.706 120.96 679.07 127.805 679.07 127.805Z" fill="#163560"/>
<path d="M711.592 302.799C709.825 306.009 705.943 306.258 701.066 304.864C698.702 304.217 696.164 303.147 693.477 301.903C693.253 301.753 692.954 301.629 692.705 301.504C684.817 297.672 676.008 291.848 669.141 287.442C654.708 278.208 653.763 283.385 649.483 278.283C649.483 278.283 653.887 273.654 648.239 219.67C646.646 204.214 672.525 175.193 672.525 175.193C672.525 175.193 672.699 184.776 693.377 176.612C694.124 176.363 699.772 188.559 704.724 203.293C705.52 205.649 706.283 208.03 707.013 210.436C710.447 221.86 713.01 233.782 712.313 242.07C712.139 244.036 711.816 245.828 711.268 247.321C711.202 247.454 711.144 247.595 711.094 247.744C703.977 264.818 716.693 293.59 711.592 302.799Z" fill="#466AA5"/>
<path d="M640.399 235.374L602.277 232.637L618.601 277.113L654.309 280.822L640.399 235.374Z" fill="#B64C41"/>
<path d="M640.076 235.847L601.93 233.109L618.253 277.586L653.986 281.294L640.076 235.847Z" fill="#D6716B"/>
<path d="M636.642 235.1C636.642 235.1 637.563 229.326 634.303 229.227C631.068 229.102 629.152 234.727 629.152 234.727L636.642 235.1Z" fill="#B2CBFD"/>
<path d="M630.547 240.302C631.443 244.409 636.693 251.129 636.37 254.514L612.009 254.19C612.009 254.19 612.158 252.622 606.958 241.422C604.818 236.818 607.331 228.48 609.546 228.306L634.305 229.202C634.305 229.202 628.781 232.313 630.547 240.302Z" fill="#D2E9FF"/>
<path d="M602.278 232.637L601.93 233.11L602.776 233.184L602.701 232.886L602.278 232.637Z" fill="#B64C41"/>
<path d="M653.988 281.294L654.311 280.821L653.664 280.323L653.988 281.294Z" fill="#B64C41"/>
<path d="M711.591 302.799C709.824 306.009 705.942 306.258 701.065 304.864C698.701 304.217 696.163 303.147 693.476 301.903C684.02 295.755 673.868 285.949 668.169 270.219C655.379 234.877 704.574 209.291 704.574 209.291L707.012 210.436C710.446 221.86 713.009 233.782 712.313 242.07C712.138 244.036 711.815 245.828 711.267 247.321C711.201 247.454 711.143 247.595 711.093 247.744C703.977 264.818 716.692 293.59 711.591 302.799Z" fill="#2B478B"/>
<path d="M654.98 266.286L653.438 265.191L668.218 244.359L669.761 245.454L654.98 266.286Z" fill="#D16E24"/>
<path d="M653.441 265.191L653.316 267.058L654.984 266.287L653.441 265.191Z" fill="#F1A34F"/>
<path d="M673.171 256.206C673.171 256.206 666.477 253.444 663.093 254.215C659.709 254.987 652.816 257.252 653.14 259.118C653.439 260.985 660.804 263.15 664.263 261.906C667.746 260.636 669.737 263.275 673.818 262.603C677.899 261.931 673.171 256.206 673.171 256.206Z" fill="#FFB27D"/>
<path d="M693.4 176.637C693.4 176.637 714.402 180.196 717.04 185.746C719.652 191.271 717.911 249.337 716.268 255.485C714.651 261.607 680.685 264.494 670.532 264.121C670.532 264.121 668.915 257.227 670.831 253.369C672.722 249.536 697.855 245.38 699.92 242.518C701.985 239.655 695.789 204.363 696.585 197.444C697.382 190.55 693.4 176.637 693.4 176.637Z" fill="#466AA5"/>
<path d="M611.038 258.421C611.038 258.421 617.98 257.749 617.034 260.611C616.089 263.449 613.476 264.818 613.476 264.818C613.476 264.818 608.101 260.96 611.038 258.421Z" fill="#FFB27D"/>
<path d="M736.276 298.368V340.356C736.276 347.723 734.211 353.671 731.623 353.671H649.458C646.895 353.671 644.805 347.723 644.805 340.356V298.368C644.805 291.001 651.349 283.709 673.844 285.028H731.623C734.211 285.028 736.276 291.001 736.276 298.368Z" fill="#F1A34F"/>
<path d="M747.175 298.368V340.356C747.175 347.723 745.084 353.671 742.521 353.671H660.356C657.768 353.671 655.703 347.723 655.703 340.356V298.368C655.703 291.001 662.72 284.405 679.293 285.028L737.968 284.654C747.2 284.654 747.175 291.001 747.175 298.368Z" fill="#DF812F"/>
<path d="M833.594 316.936H726.769C724.231 316.936 722.141 319.026 722.141 321.565V323.208C722.141 325.746 724.231 327.837 726.769 327.837H776.038L778.8 412.434C765.189 412.857 753.917 419.602 750.956 428.562H809.407C806.471 419.677 795.373 412.957 781.886 412.434L784.324 327.837H833.594C836.132 327.837 838.222 325.746 838.222 323.208V321.565C838.222 319.026 836.132 316.936 833.594 316.936Z" fill="#4A75CB"/>
<path fill-rule="evenodd" clip-rule="evenodd" d="M773.177 312.106C772.107 313.376 768.698 314.222 768.698 314.222C767.355 315.715 765.414 316.686 763.249 316.686C759.268 316.686 756.008 313.425 756.008 309.418V306.606C756.008 306.291 756.024 305.992 756.058 305.71H770.44C770.49 305.992 770.515 306.291 770.515 306.606V308C771.46 307.801 772.779 307.626 773.476 308.049C774.621 308.746 774.272 310.812 773.177 312.106ZM772.356 308.946C771.759 308.846 770.988 309.244 770.49 309.916C770.44 310.762 770.241 311.559 769.918 312.306C770.714 312.106 772.356 311.609 772.705 310.663C773.177 309.468 772.854 309.02 772.356 308.946Z" fill="#699DEE"/>
<path d="M757.18 306.606V309.419C757.18 313.426 760.439 316.686 764.446 316.686C764.761 316.686 765.084 316.662 765.416 316.612C761.883 316.139 759.121 313.078 759.121 309.419V306.606C759.121 306.291 759.146 305.984 759.195 305.686H757.23C757.196 305.984 757.18 306.291 757.18 306.606Z" fill="#AFCDFB"/>
<path d="M766.211 316.935H760.289V316.039H766.211V316.935Z" fill="#699DEE"/>
<path fill-rule="evenodd" clip-rule="evenodd" d="M811.3 312.106C810.205 313.376 806.796 314.222 806.796 314.222C805.452 315.715 803.511 316.686 801.347 316.686C797.365 316.686 794.105 313.425 794.105 309.418V306.606C794.105 306.291 794.122 305.992 794.155 305.71H808.538C808.588 305.992 808.613 306.291 808.613 306.606V308C809.558 307.801 810.902 307.626 811.574 308.049C812.718 308.746 812.37 310.812 811.3 312.106ZM810.454 308.946C809.882 308.846 809.085 309.244 808.588 309.916C808.538 310.762 808.339 311.559 808.015 312.306C808.812 312.106 810.454 311.609 810.802 310.663C811.275 309.468 810.952 309.02 810.454 308.946Z" fill="#699DEE"/>
<path d="M795.273 306.606V309.419C795.273 313.426 798.533 316.686 802.539 316.686C802.871 316.686 803.195 316.662 803.51 316.612C799.976 316.139 797.239 313.078 797.239 309.419V306.606C797.239 306.291 797.256 305.984 797.289 305.686H795.348C795.298 305.984 795.273 306.291 795.273 306.606Z" fill="#AFCDFB"/>
<path d="M804.309 316.935H798.387V316.039H804.309V316.935Z" fill="#699DEE"/>
<path d="M499.089 291.623C499.089 291.623 475.474 309.17 470.896 308.099C466.293 307.054 488.14 289.159 488.14 289.159C479.904 285.202 454.348 287.69 454.348 287.69C454.348 287.69 445.838 315.143 441.633 312.978C437.428 310.812 450.417 289.034 450.417 289.034C441.26 288.487 430.012 295.306 430.012 295.306C414.634 307.452 431.033 326.567 431.033 326.567C431.033 326.567 427.872 336.025 418.168 344.636C418.168 344.636 404.283 354.89 403.312 373.234L405.851 373.458C405.851 373.458 409.832 356.384 417.073 348.295C417.372 348.021 417.77 347.598 418.267 347.1C419.462 345.98 420.283 345.159 420.855 344.562C424.463 341.077 429.44 336.672 431.854 336.249C431.854 336.249 431.729 335.801 431.754 335.029C431.787 335.411 431.821 335.817 431.854 336.249C432.675 345.906 451.412 354.343 462.958 356.085C474.504 357.827 470.921 353.074 466.964 346.055C462.983 339.011 450.392 335.875 447.53 332.64C444.669 329.404 450.591 329.379 457.534 332.565C464.501 335.726 465.446 344.188 476.594 349.539C487.742 354.89 504.513 336.373 504.513 336.373C495.63 335.925 482.94 326.268 483.412 323.331C483.86 320.37 504.936 328.409 508.545 328.807C512.153 329.18 520.364 324.7 521.633 310.19C522.902 295.655 499.089 291.623 499.089 291.623Z" fill="#82B378"/>
<path d="M373.723 302.524C373.723 302.524 399.776 287.914 387.608 268.103C387.608 268.103 377.878 255.932 367.452 252.796C367.452 252.796 373.026 282.339 367.452 283.036C361.903 283.733 363.62 249.66 363.62 249.66C363.62 249.66 336.174 236.444 325.399 237.49C325.399 237.49 342.419 266.361 336.87 265.664C331.296 264.967 312.186 235.747 312.186 235.747C312.186 235.747 284.018 230.546 279.489 247.221C274.985 263.922 282.276 272.259 286.456 273.305C290.612 274.35 317.387 274.002 316.69 277.486C315.993 280.97 297.928 286.521 287.85 283.385C287.85 283.385 298.973 310.862 313.555 309.468C328.161 308.074 332.69 299.04 341.723 298.343C350.755 297.646 357.374 300.085 352.846 302.524C348.342 304.963 333.038 303.321 325.723 309.518C318.432 315.74 312.534 319.548 326.071 322.336C339.632 325.123 363.968 323.381 368.846 312.953C373.723 302.524 373.723 302.524 373.723 302.524Z" fill="#A8D29F"/>
<path d="M380.667 327.911C373.376 314.347 373.724 302.525 373.724 302.525C365.364 276.093 292.355 252.448 292.355 252.448C385.196 290.006 368.847 312.953 368.847 312.953C371.36 314.422 375.093 321.366 377.706 326.717C378.079 327.613 378.651 328.882 379.522 330.574C379.895 331.346 380.169 331.993 380.368 332.416C385.146 344.388 382.608 365.046 382.608 365.046L385.519 365.817C391.914 345.01 380.667 327.911 380.667 327.911Z" fill="#82B378"/>
<path d="M415.205 282.365C415.205 282.365 380.816 263.126 396.865 236.992C396.865 236.992 409.705 220.964 423.441 216.832C423.441 216.832 416.125 255.784 423.441 256.704C430.782 257.625 428.492 212.701 428.492 212.701C428.492 212.701 464.698 195.279 478.906 196.648C478.906 196.648 456.436 234.703 463.777 233.782C471.118 232.861 496.325 194.358 496.325 194.358C496.325 194.358 533.426 187.488 539.398 209.49C545.345 231.492 535.715 242.493 530.216 243.862C524.717 245.256 489.432 244.783 490.353 249.362C491.273 253.967 515.112 261.284 528.399 257.177C528.399 257.177 513.718 293.366 494.483 291.549C475.223 289.707 469.276 277.785 457.357 276.864C445.438 275.968 436.729 279.179 442.701 282.365C448.648 285.576 468.828 283.435 478.433 291.624C488.063 299.787 495.852 304.84 477.985 308.498C460.119 312.182 428.02 309.892 421.624 296.128C415.205 282.365 415.205 282.365 415.205 282.365Z" fill="#A8D29F"/>
<path d="M522.43 216.359C522.43 216.359 426.206 247.545 415.207 282.365C415.207 282.365 415.655 297.97 406.025 315.84C406.025 315.84 391.195 338.39 399.655 365.817L403.462 364.797C403.462 364.797 400.128 337.568 406.423 321.814C406.697 321.216 407.07 320.395 407.518 319.374C408.688 317.11 409.459 315.467 409.932 314.272C413.366 307.229 418.318 298.045 421.627 296.128C421.627 296.128 400.078 265.863 522.43 216.359Z" fill="#82B378"/>
<path d="M357.899 279.129C357.899 279.129 414.783 262.877 429.066 278.333C441.582 291.897 475.548 345.508 477.315 377.241C479.057 408.079 446.435 428.363 412.867 428.363H353.246L357.899 279.129Z" fill="#F1A34F"/>
<path d="M318.531 294.933C318.531 294.933 398.955 258.396 414.183 282.264C422.27 294.933 444.541 345.507 446.183 377.24C447.776 408.078 417.766 428.362 386.886 428.362H332.068L318.531 294.933Z" fill="#D16E24"/>
<path d="M159.949 182.511C159.949 182.511 259.981 179.798 298.177 179.897C317.81 179.922 317.337 194.806 326.768 212.029C345.679 246.55 377.057 305.935 374.569 315.218C371.011 328.409 237.088 337.568 227.607 334.507C218.127 331.471 159.949 182.511 159.949 182.511Z" fill="#E78B37"/>
<path opacity="0.4" d="M238.282 209.266C238.282 209.266 239.626 189.629 234.898 191.321C230.145 193.014 200.012 220.441 204.764 285.127L218.649 296.975L324.603 279.353L238.282 209.266Z" fill="#C44F00"/>
<path d="M372.979 288.861L337.296 306.507C337.296 306.507 306.715 194.034 304.674 185.447C303.778 181.615 300.992 180.246 298.18 179.897C303.131 179.449 306.715 179.399 306.715 179.399C316.469 179.399 325.104 185.597 328.239 194.831C335.057 214.941 347.598 252.025 360.314 289.807C363.648 288.463 367.605 286.944 371.959 285.376L372.979 288.861Z" fill="#F1A34F"/>
<path d="M301.563 294.958C301.563 294.958 416.898 284.729 431.106 298.368C437.725 304.69 441.433 333.312 443.498 362.183C446.086 398.197 416.923 429.009 381.016 428.512L255.977 428.562L301.563 294.958Z" fill="#DF812F"/>
<path d="M258.389 155.755C255.079 155.033 251.645 155.88 249.331 156.726C249.754 155.929 250.874 155.332 250.874 155.332C249.331 155.556 246.519 158.02 246.519 158.02C223.776 156.377 229.723 187.339 232.286 194.159C234.824 201.003 237.337 208.992 229.076 218.351C212.852 236.744 236.268 253.021 236.268 253.021C236.442 253.071 250.327 265.789 250.327 265.789C248.087 260.313 264.983 222.706 275.807 209.664C277.624 203.816 276.181 194.88 276.056 194.184C277.549 201.152 277.574 205.309 277.176 207.798C285.412 193.736 267.123 157.721 258.389 155.755Z" fill="#B5453C"/>
<path d="M345.605 209.764C345.929 209.266 348.815 200.455 351.851 200.63C354.912 200.804 359.64 201.302 360.834 200.978C362.029 200.63 365.985 197.618 366.682 198.34C368.374 200.132 364.567 205.632 361.854 206.478C359.142 207.325 354.738 206.055 353.717 207.051C352.697 208.071 352.871 211.73 352.871 211.73L345.605 209.764Z" fill="#FFB27D"/>
<path d="M426.153 404.644C425.83 408.228 430.831 409.099 436.629 409.398C442.427 409.696 440.66 410.866 448.598 412.31C456.536 413.753 459.721 411.563 460.293 410.493C460.816 409.547 457.108 408.054 453.177 406.386C452.679 406.17 452.19 405.955 451.709 405.739C447.279 403.798 444.791 399.815 441.332 396.132C438.072 392.647 434.962 381.497 434.962 381.497L424.188 379.183C424.188 379.183 427.198 389.238 428.268 393.519C428.89 396.057 427.97 398.87 427.149 401.01C426.726 402.18 426.278 403.375 426.153 404.644Z" fill="#FFB27D"/>
<path d="M436.631 409.397C442.429 409.696 440.663 410.866 448.6 412.309C456.538 413.753 459.723 411.563 460.296 410.492C460.818 409.547 457.11 408.053 453.179 406.386L453.129 406.436C453.129 406.436 447.555 408.352 441.11 406.585C435.86 405.166 430.784 402.03 427.151 401.01C426.728 402.18 426.28 403.374 426.155 404.644C425.832 408.228 430.834 409.099 436.631 409.397Z" fill="#C65447"/>
<path d="M318.758 276.714C318.758 276.714 390.448 271.338 403.934 279.85C417.421 288.362 439.07 387.569 439.07 387.569C439.07 387.569 437.726 388.64 434.74 388.963C431.978 389.262 425.857 387.619 425.857 387.619C425.857 387.619 394.752 343.242 392.563 332.067C390.373 320.867 390.92 310.887 385.919 310.638C380.942 310.364 318.758 318.179 309.352 301.628C299.946 285.052 307.735 268.65 307.735 268.65L318.758 276.714Z" fill="#AA413E"/>
<path d="M352.746 220.416C347.869 232.76 336.124 252.871 333.063 253.617C330.5 254.265 317.984 251.402 307.807 247.918C301.835 245.902 296.684 243.637 294.817 241.77C289.741 236.693 273.02 206.851 273.02 206.851C273.02 206.851 288.721 204.86 296.161 209.265C303.626 213.671 321.567 233.98 324.279 233.308C326.967 232.636 339.832 209.937 344.933 207.897C344.933 207.897 352.696 206.204 354.737 211.63C355.259 212.999 354.388 216.259 352.746 220.416Z" fill="#699DEE"/>
<path d="M398.731 416.167C398.408 419.751 403.41 420.622 409.207 420.921C415.005 421.195 413.238 422.39 421.176 423.833C429.114 425.252 432.299 423.086 432.872 422.016C433.394 421.07 429.686 419.577 425.755 417.885C425.257 417.686 424.768 417.47 424.287 417.238C419.857 415.296 417.369 411.339 413.91 407.655C410.651 404.171 407.54 392.996 407.54 392.996L396.766 390.706C396.766 390.706 399.777 400.736 400.847 405.042C401.469 407.556 400.548 410.368 399.727 412.534C399.304 413.703 398.856 414.898 398.731 416.167Z" fill="#FFB27D"/>
<path d="M409.21 420.921C415.007 421.195 413.241 422.389 421.178 423.833C429.116 425.251 432.301 423.086 432.874 422.016C433.396 421.07 429.689 419.577 425.757 417.884L425.707 417.959C425.707 417.959 420.133 419.851 413.689 418.108C408.438 416.69 403.362 413.529 399.729 412.533C399.306 413.703 398.858 414.898 398.734 416.167C398.41 419.751 403.412 420.622 409.21 420.921Z" fill="#C65447"/>
<path d="M352.747 220.416C347.87 232.761 336.125 252.871 333.064 253.618C330.501 254.265 317.985 251.403 307.807 247.918C303.577 244.334 300.989 241.223 300.566 240.601C300.915 240.725 324.654 249.71 329.357 247.694C333.612 245.877 345.68 225.269 352.747 220.416Z" fill="#4A75CB"/>
<path d="M275.137 210.361C275.212 210.361 269.663 215.812 264.263 215.986C259.212 216.135 254.31 211.008 254.359 210.958C256.226 209.963 255.977 207.076 252.344 195.403L253.314 195.303L269.264 193.686C269.264 193.686 270.359 198.514 271.703 202.994C272.848 206.727 274.167 210.212 275.137 210.361Z" fill="#FFB27D"/>
<path d="M269.263 193.686C269.263 193.686 270.358 198.514 271.701 202.994C263.216 205.334 256.423 199.012 253.312 195.303L269.263 193.686Z" fill="#E2915A"/>
<path d="M304.724 281.17C304.724 281.17 368.401 284.181 381.539 293.216C394.702 302.251 412.469 402.229 412.469 402.229C412.469 402.229 411.076 403.25 408.09 403.449C405.303 403.648 399.256 401.781 399.256 401.781C399.256 401.781 369.919 356.21 368.177 344.935C366.41 333.685 367.331 323.73 362.354 323.282C357.377 322.809 294.945 328.21 286.211 311.285C277.452 294.361 304.724 281.17 304.724 281.17Z" fill="#C65447"/>
<path d="M251.249 194.133C251.249 194.133 244.704 188.508 241.818 182.883C239.777 178.851 237.115 162.4 253.662 159.836C253.662 159.836 258.415 158.891 263.641 160.483C267.796 161.753 274.291 165.262 272.922 180.718V185.82L251.249 194.133Z" fill="#B5453C"/>
<path d="M305.098 286.571C304.525 286.596 303.754 286.546 302.833 286.471C299.101 286.197 293.179 285.401 291.088 284.779C273.57 279.552 256.749 273.081 249.583 250.407C248.712 247.669 247.99 244.683 247.418 241.422L250.155 231.019L255.48 209.042C255.48 209.042 262.049 212.526 268.121 211.182C271.256 210.485 273.023 206.852 273.023 206.852C273.023 206.852 305.994 219.769 317.166 246.524C328.339 273.255 332.171 269.198 335.555 274.948C338.939 280.722 323.935 286.471 305.098 286.571Z" fill="#699DEE"/>
<path d="M273.371 197.045C273.371 197.045 253.539 203.467 249.732 191.047C245.925 178.652 240.824 171.111 253.315 166.507C265.807 161.877 269.713 165.86 272.003 169.692C274.267 173.525 278.422 195.054 273.371 197.045Z" fill="#FFB27D"/>
<path d="M262.296 163.421C262.296 163.421 261.276 179.648 253.562 184.352C245.848 189.081 241.543 187.936 241.543 187.936C241.543 187.936 246.395 180.868 245.002 171.559C245.002 171.559 256.05 157.746 262.296 163.421Z" fill="#B5453C"/>
<path d="M261.301 165.013C261.301 165.013 266.352 167.029 268.318 169.892C270.284 172.754 272.722 179.1 274.539 178.304C274.539 178.304 275.634 167.154 269.288 162.972C262.595 158.542 261.301 165.013 261.301 165.013Z" fill="#B5453C"/>
<path d="M302.831 286.471C299.098 286.197 293.176 285.401 291.086 284.779C273.568 279.552 256.746 273.081 249.58 250.407C249.547 250.241 249.514 250.075 249.48 249.909L251.919 247.993C256.896 244.085 263.589 243.189 269.412 245.629C283.247 251.477 302.258 262.08 302.831 286.471Z" fill="#4A75CB"/>
<path d="M255.479 209.042C255.479 209.042 235 212.103 231.616 224.971C228.232 237.814 225.221 279.801 228.282 283.111C231.317 286.422 240.425 282.589 242.465 280.921C244.481 279.278 254.982 236.569 254.982 236.569C254.982 236.569 260.108 217.255 255.479 209.042Z" fill="#699DEE"/>
<path d="M286.656 268.053C286.656 268.053 298.426 265.764 299.77 266.336C301.089 266.908 308.504 273.554 307.733 274.873C306.986 276.217 303.95 277.163 300.516 276.018C297.107 274.873 289.692 274.3 288.373 272.608C287.03 270.891 286.656 268.053 286.656 268.053Z" fill="#FFB27D"/>
<path d="M289.817 266.386C289.817 266.386 243.858 265.64 232.834 272.857C232.834 272.857 226.365 279.503 228.281 283.112C230.172 286.72 236.069 286.148 238.732 285.974C241.369 285.775 287.926 275.147 287.926 275.147C287.926 275.147 293.251 271.14 289.817 266.386Z" fill="#699DEE"/>
<path d="M250.699 279.129C250.699 279.129 303.004 262.877 316.143 278.333C327.664 291.897 358.868 345.508 360.51 377.241C362.103 408.079 332.093 428.363 301.238 428.363H246.395L250.699 279.129Z" fill="#F1A34F"/>
<path d="M329.357 377.241C327.714 345.507 305.468 294.933 297.381 282.265C285.587 263.772 234.65 281.543 212.305 290.478C199.589 252.697 187.048 215.612 180.23 195.502C177.095 186.293 168.46 180.071 158.706 180.071C158.706 180.071 122.351 174.72 116.727 223.153C98.7367 378.186 113.194 428.188 177.791 428.586C185.879 428.636 201.729 428.487 215.266 428.337V428.362H270.084C300.965 428.362 330.974 408.078 329.357 377.241Z" fill="#F1A34F"/>
<path d="M329.383 377.142C327.716 345.309 305.47 294.585 297.383 281.892C287.33 266.087 248.935 276.665 223.952 285.675C219.597 287.243 215.641 288.786 212.307 290.13C199.591 252.249 187.05 215.04 180.232 194.88C177.097 185.622 168.462 179.399 158.708 179.399C158.708 179.399 155.124 179.449 150.173 179.897C142.185 180.619 130.739 182.436 125.239 186.941C121.532 190.002 118.969 203.392 116.729 222.607C111.479 267.929 108.991 304.317 109.712 333.113C110.061 347.897 111.28 360.665 113.37 371.641C114.863 379.332 116.779 386.127 119.143 392.1C129.445 418.009 148.456 428.463 177.793 428.637C181.202 428.662 185.98 428.637 191.38 428.612C198.82 428.562 207.429 428.463 215.268 428.388V428.413H270.086C300.966 428.413 330.976 408.079 329.383 377.142Z" fill="#D16E24"/>
<path d="M211.709 288.015C203.447 291.25 194.315 294.834 186.9 297.746C179.684 271.115 158.359 192.566 156.666 185.447C155.771 181.615 152.984 180.246 150.172 179.897C155.124 179.449 158.707 179.399 158.707 179.399C168.461 179.399 177.096 185.597 180.231 194.831C186.925 214.617 199.192 250.855 211.709 288.015Z" fill="#F1A34F"/>
<path opacity="0.4" fill-rule="evenodd" clip-rule="evenodd" d="M222.581 331.371C219.023 332.093 196.13 331.844 196.727 334.258C197.324 336.672 212.777 340.555 221.411 338.365C221.411 338.365 211.881 357.454 199.389 356.484C197.598 356.334 195.98 356.086 194.487 355.762C193.741 356.26 192.547 357.081 191.228 358.027C192.721 359.072 194.015 359.993 194.811 360.839C198.817 358.674 202.4 356.509 202.4 356.509C202.4 356.509 217.828 358.649 217.007 366.29C216.186 373.956 210.861 376.32 208.522 376.096C206.183 375.897 192.497 371.666 192.198 373.209C191.924 374.777 200.136 379.854 205.909 380.103C205.909 380.103 195.035 389.835 187.794 387.022C180.553 384.21 179.931 379.755 175.427 378.087C170.923 376.42 167.066 376.42 168.932 378.112C170.798 379.83 178.96 381.497 181.523 385.181C184.111 388.889 186.425 391.403 178.935 390.482C171.445 389.561 159.277 385.106 158.755 380.029C158.738 379.813 158.713 379.597 158.68 379.382C158.68 379.805 158.755 380.029 158.755 380.029C157.187 380.253 153.952 382.592 151.613 384.409C151.24 384.733 150.717 385.156 149.946 385.728C149.664 385.977 149.432 386.176 149.249 386.326C147.707 387.694 146.388 389.561 145.318 391.478H191.875V392.573H190.854C190.332 406.983 179.184 419.254 163.557 424.381H186.102C188.714 424.381 190.879 425.874 191.377 427.865C191.443 428.164 191.485 428.462 191.501 428.761H102.891C102.891 426.347 105.305 424.381 108.291 424.381H130.836C115.209 419.254 104.061 406.983 103.538 392.573H102.07V391.478H127.153C127.377 387.744 127.302 381.97 125.336 378.013C125.212 377.789 125.038 377.44 124.789 377.042C124.241 376.146 123.868 375.474 123.619 375.001C121.927 372.189 119.489 368.53 117.871 367.758C117.871 367.758 118.07 367.534 118.269 367.062C118.137 367.294 118.004 367.526 117.871 367.758C117.075 369.152 115.482 370.247 113.367 371.069C111.277 360.142 110.058 347.399 109.71 332.665C112.546 333.661 114.487 334.432 114.487 334.432C114.487 334.432 113.367 352.377 116.975 352.004C120.584 351.63 116.975 336.075 116.975 336.075C123.744 337.718 130.064 344.139 130.064 344.139C137.952 354.567 121.031 362.258 121.031 362.258C121.031 362.258 120.808 368.48 125.535 375.623C125.535 375.623 131.084 382.468 129.766 391.478H136.658C134.145 378.958 142.008 369.277 142.008 369.277C148.254 359.869 147.955 351.655 147.955 351.655C147.955 351.655 125.635 341.501 136.061 327.737C136.061 327.737 144.372 319.3 153.305 317.134C153.305 317.134 148.553 337.643 153.305 338.141C158.058 338.614 156.565 314.944 156.565 314.944C156.565 314.944 180.055 305.785 189.287 306.507C189.287 306.507 174.705 326.542 179.483 326.045C184.235 325.572 200.584 305.287 200.584 305.287C200.584 305.287 224.671 301.678 228.528 313.252C232.41 324.85 226.164 330.649 222.581 331.371ZM151.588 357.977C151.812 358.55 152.086 358.848 152.111 358.898C151.937 358.574 151.763 358.276 151.588 357.977ZM158.207 374.926C158.207 374.926 150.394 367.534 154.45 361.387C153.455 360.64 152.633 359.819 152.111 358.898C149.971 359.918 146.761 364.747 144.546 368.455C144.38 368.771 144.173 369.144 143.924 369.575C143.659 370.023 143.344 370.546 142.979 371.143C142.655 371.666 142.431 372.114 142.257 372.413C139.445 378.137 139.595 386.674 139.968 391.478H142.904C145.766 386.923 149.871 384.459 149.871 384.459C156.167 379.904 158.207 374.926 158.207 374.926ZM189.461 354.219C183.962 352.029 180.503 349.067 175.302 348.743C167.564 348.27 161.915 349.963 165.797 351.655C168.609 352.875 176.323 352.626 182.718 354.045C184.957 354.02 187.321 354.07 189.461 354.219Z" fill="#C44F00"/>
<path d="M172.144 423.36H94.3333C91.3473 423.36 88.9336 425.775 88.9336 428.761H177.519C177.519 425.775 175.105 423.36 172.144 423.36Z" fill="#4A75CB"/>
<path d="M144.248 362.457C144.248 362.457 133.623 350.037 143.601 342.147C143.601 342.147 150.892 337.742 156.839 338.091C156.839 338.091 148.404 352.227 151.141 353.621C153.853 355.04 159.377 337.219 159.377 337.219C159.377 337.219 175.975 335.602 181.324 338.165C181.324 338.165 167.141 349.763 170.127 350.46C173.113 351.157 188.416 339.758 188.416 339.758C188.416 339.758 203.869 342.396 203.048 351.804C202.227 361.237 196.902 364.149 194.562 363.9C192.223 363.651 178.538 358.425 178.239 360.341C177.94 362.258 186.177 368.505 191.95 368.803C191.95 368.803 181.051 380.825 173.835 377.34C166.593 373.881 165.971 368.38 161.467 366.339C156.964 364.274 153.107 364.274 154.973 366.389C156.839 368.48 165.001 370.521 167.564 375.075C170.152 379.655 172.466 382.716 164.976 381.596C157.486 380.476 145.318 375.001 144.796 368.729C144.248 362.457 144.248 362.457 144.248 362.457Z" fill="#82B378"/>
<path d="M195.461 352.078C195.461 352.078 153.508 350.46 144.251 362.457C144.251 362.457 142.211 368.579 135.915 374.179C135.915 374.179 126.907 380.825 126.285 392.721L127.903 392.871C127.903 392.871 130.49 381.795 135.218 376.544C135.393 376.369 135.666 376.096 135.99 375.747C136.761 375.05 137.284 374.528 137.632 374.129C139.996 371.865 143.231 369.002 144.798 368.729C144.798 368.729 140.718 353.87 195.461 352.078Z" fill="#82B378"/>
<path d="M107.075 346.826C107.075 346.826 123.995 337.368 116.083 324.501C116.083 324.501 109.762 316.611 102.994 314.57C102.994 314.57 106.627 333.76 102.994 334.208C99.3858 334.656 100.53 312.529 100.53 312.529C100.53 312.529 82.689 303.968 75.6967 304.64C75.6967 304.64 86.7699 323.381 83.1618 322.908C79.5537 322.46 67.1368 303.52 67.1368 303.52C67.1368 303.52 48.8475 300.135 45.9361 310.961C42.9999 321.788 47.7277 327.214 50.44 327.886C53.1523 328.558 70.521 328.334 70.0731 330.599C69.6252 332.839 57.8802 336.448 51.3358 334.432C51.3358 334.432 58.552 352.252 68.0326 351.356C77.5132 350.46 80.4495 344.586 86.322 344.138C92.1696 343.69 96.4744 345.258 93.5382 346.826C90.6019 348.419 80.6734 347.349 75.9207 351.381C71.1928 355.413 67.3608 357.902 76.1695 359.694C84.9534 361.511 100.754 360.366 103.915 353.596C107.075 346.826 107.075 346.826 107.075 346.826Z" fill="#A8D29F"/>
<path d="M111.576 363.303C106.848 354.517 107.072 346.827 107.072 346.827C101.648 329.678 54.2695 314.347 54.2695 314.347C114.512 338.713 103.912 353.596 103.912 353.596C105.529 354.542 107.968 359.072 109.66 362.532C109.884 363.129 110.282 363.95 110.83 365.045C111.078 365.543 111.253 365.966 111.377 366.24C114.487 374.005 112.845 387.42 112.845 387.42L114.711 387.918C118.892 374.404 111.576 363.303 111.576 363.303Z" fill="#82B378"/>
<path d="M133.972 333.76C133.972 333.76 111.676 321.265 122.077 304.316C122.077 304.316 130.413 293.913 139.347 291.225C139.347 291.225 134.569 316.512 139.347 317.109C144.099 317.706 142.606 288.561 142.606 288.561C142.606 288.561 166.096 277.237 175.328 278.133C175.328 278.133 160.746 302.823 165.499 302.225C170.277 301.653 186.625 276.665 186.625 276.665C186.625 276.665 210.712 272.185 214.569 286.471C218.451 300.757 212.205 307.875 208.622 308.771C205.064 309.667 182.171 309.369 182.768 312.355C183.34 315.317 198.818 320.096 207.453 317.408C207.453 317.408 197.922 340.903 185.431 339.708C172.939 338.538 169.082 330.798 161.343 330.201C153.605 329.603 147.956 331.694 151.838 333.76C155.695 335.85 168.784 334.457 175.029 339.758C181.275 345.059 186.326 348.345 174.731 350.734C163.135 353.098 142.308 351.605 138.152 342.695C133.972 333.76 133.972 333.76 133.972 333.76Z" fill="#A8D29F"/>
<path d="M203.573 290.926C203.573 290.926 141.115 311.16 133.974 333.76C133.974 333.76 134.272 343.889 128.026 355.488C128.026 355.488 118.396 370.097 123.896 387.918L126.384 387.246C126.384 387.246 124.219 369.575 128.3 359.345C128.474 358.972 128.698 358.424 128.997 357.777C129.743 356.309 130.266 355.239 130.564 354.467C132.804 349.888 136.014 343.939 138.154 342.695C138.154 342.695 124.169 323.057 203.573 290.926Z" fill="#82B378"/>
<path d="M89.5312 382.841C89.5312 406.958 109.115 426.521 133.227 426.521C157.364 426.521 176.922 406.958 176.922 382.841H89.5312Z" fill="#699DEE"/>
<path d="M143.975 426.197C142.2 426.413 140.392 426.521 138.551 426.521C114.414 426.521 94.8555 406.958 94.8555 382.841H105.73C105.73 405.141 122.426 423.534 143.975 426.197Z" fill="#A1C7FF"/>
<path d="M88.1133 382.841V384.185H177.918V382.841H88.1133Z" fill="#4A75CB"/>
</g>
<defs>
<linearGradient id="paint0_linear_825_103" x1="-382116" y1="799298" x2="1.00455e+06" y2="-1.08207e+06" gradientUnits="userSpaceOnUse">
<stop stop-color="#7C4695"/>
<stop offset="1" stop-color="#E3C1F3"/>
</linearGradient>
<clipPath id="clip0_825_103">
<rect width="854" height="560" fill="white"/>
</clipPath>
</defs>
</svg>
